<?xml version="1.0" encoding="UTF-8" ?>
<!DOCTYPE svg PUBLIC "-//W3C//DTD SVG 1.1//EN" "http://www.w3.org/Graphics/SVG/1.1/DTD/svg11.dtd">
<svg width="771pt" height="705pt" viewBox="0 0 771 705" version="1.1" xmlns="http://www.w3.org/2000/svg">
<g id="#f8c1bcff">
<path fill="#f8c1bc" opacity="1.00" d=" M 153.82 49.11 C 159.86 48.36 165.95 47.95 172.04 48.00 C 213.16 48.02 254.29 47.96 295.41 48.03 C 267.35 56.40 239.53 66.40 214.05 81.02 C 189.65 94.63 167.18 111.76 147.71 131.79 C 145.46 133.88 143.39 136.16 141.54 138.62 C 111.61 171.50 90.38 211.66 76.89 253.87 C 68.99 277.98 63.81 302.92 60.12 328.00 C 58.06 341.58 56.49 355.26 55.84 368.96 C 55.18 372.95 54.88 376.99 55.11 381.04 C 55.46 385.75 53.96 390.33 54.02 395.03 C 54.10 408.37 54.12 421.71 54.04 435.06 C 54.01 439.39 55.29 443.62 55.10 447.96 C 54.99 451.49 54.82 455.05 55.48 458.54 C 56.45 463.39 55.62 468.39 56.77 473.22 C 57.33 475.08 56.89 476.92 56.00 478.60 C 46.11 460.03 41.01 438.99 41.00 417.97 C 41.02 341.73 40.96 265.48 41.02 189.24 C 49.93 171.37 58.12 153.00 69.63 136.59 C 77.86 123.76 87.28 111.74 97.22 100.21 C 106.14 91.48 114.88 82.55 123.73 73.74 C 132.48 66.05 141.79 59.02 151.24 52.21 C 152.37 51.47 153.05 50.29 153.77 49.19 L 153.82 49.11 Z" />
</g>
<g id="#f7b8b2ff">
<path fill="#f7b8b2" opacity="1.00" d=" M 295.41 48.03 C 334.27 47.95 373.13 48.02 411.99 48.00 C 443.31 48.16 474.47 60.10 497.66 81.19 C 496.47 81.56 495.26 81.83 494.04 82.00 C 485.42 80.83 476.73 79.79 468.02 79.99 C 464.34 79.67 460.72 78.84 457.02 78.90 C 444.34 78.99 431.67 78.88 418.99 78.91 C 413.98 78.91 409.08 80.40 404.05 79.99 C 401.24 79.78 398.44 80.03 395.68 80.53 C 346.31 84.66 296.52 94.99 252.42 118.32 C 233.33 127.60 215.82 139.93 199.75 153.74 C 196.09 157.78 191.39 160.66 187.71 164.68 C 186.74 165.78 185.36 166.85 185.57 168.50 C 156.32 192.68 135.43 226.78 127.81 264.00 C 126.68 263.28 125.97 263.47 125.68 264.56 C 112.36 301.60 105.61 340.78 102.88 379.94 C 103.43 385.67 101.59 391.25 101.88 396.97 C 102.13 406.29 101.70 415.61 101.93 424.93 C 102.10 430.17 101.41 435.46 102.37 440.65 C 103.54 446.16 102.24 451.84 103.51 457.35 C 105.19 480.45 108.86 503.40 113.97 525.99 C 114.78 529.14 115.67 532.30 115.72 535.59 C 90.29 523.85 69.01 503.39 56.00 478.60 C 56.89 476.92 57.33 475.08 56.77 473.22 C 55.62 468.39 56.45 463.39 55.48 458.54 C 54.82 455.05 54.99 451.49 55.10 447.96 C 55.29 443.62 54.01 439.39 54.04 435.06 C 54.12 421.71 54.10 408.37 54.02 395.03 C 53.96 390.33 55.46 385.75 55.11 381.04 C 54.88 376.99 55.18 372.95 55.84 368.96 C 56.49 355.26 58.06 341.58 60.12 328.00 C 63.81 302.92 68.99 277.98 76.89 253.87 C 90.38 211.66 111.61 171.50 141.54 138.62 C 143.39 136.16 145.46 133.88 147.71 131.79 C 167.18 111.76 189.65 94.63 214.05 81.02 C 239.53 66.40 267.35 56.40 295.41 48.03 Z" />
</g>
<g id="#f8c7c1ff">
<path fill="#f8c7c1" opacity="1.00" d=" M 78.05 87.12 C 98.14 66.53 125.21 52.81 153.77 49.19 C 153.05 50.29 152.37 51.47 151.24 52.21 C 141.79 59.02 132.48 66.05 123.73 73.74 C 114.88 82.55 106.14 91.48 97.22 100.21 C 87.28 111.74 77.86 123.76 69.63 136.59 C 58.12 153.00 49.93 171.37 41.02 189.24 C 41.02 181.80 40.80 174.35 41.50 166.93 C 43.86 137.13 57.14 108.44 78.05 87.12 Z" />
</g>
<g id="#f5aba4ff">
<path fill="#f5aba4" opacity="1.00" d=" M 404.05 79.99 C 409.08 80.40 413.98 78.91 418.99 78.91 C 431.67 78.88 444.34 78.99 457.02 78.90 C 460.72 78.84 464.34 79.67 468.02 79.99 C 476.73 79.79 485.42 80.83 494.04 82.00 C 495.26 81.83 496.47 81.56 497.66 81.19 C 512.54 94.31 524.23 111.14 531.64 129.57 C 513.92 126.32 496.18 122.75 478.17 121.56 C 472.15 120.55 466.02 121.33 460.04 120.05 C 446.70 119.69 433.34 120.02 420.00 119.82 C 415.29 119.63 410.72 121.21 406.01 120.87 C 380.54 122.47 355.21 126.83 330.50 133.29 C 330.56 133.74 330.70 134.63 330.76 135.08 C 323.47 133.44 316.10 132.06 308.65 131.44 C 308.64 135.19 308.74 138.95 308.63 142.71 C 303.47 142.84 298.93 145.43 294.27 147.30 C 288.15 149.73 282.30 152.75 276.24 155.30 C 275.57 161.22 275.93 167.20 275.83 173.16 C 275.77 176.74 275.67 180.32 275.88 183.90 L 275.16 183.89 C 274.81 166.39 275.38 148.87 275.04 131.37 C 242.40 134.50 210.87 147.68 185.57 168.50 C 185.36 166.85 186.74 165.78 187.71 164.68 C 191.39 160.66 196.09 157.78 199.75 153.74 C 215.82 139.93 233.33 127.60 252.42 118.32 C 296.52 94.99 346.31 84.66 395.68 80.53 C 398.44 80.03 401.24 79.78 404.05 79.99 Z" />
</g>
<g id="#f39e96ff">
<path fill="#f39e96" opacity="1.00" d=" M 406.01 120.87 C 410.72 121.21 415.29 119.63 420.00 119.82 C 433.34 120.02 446.70 119.69 460.04 120.05 C 466.02 121.33 472.15 120.55 478.17 121.56 C 496.18 122.75 513.92 126.32 531.64 129.57 C 535.71 139.54 538.45 150.07 539.79 160.76 C 535.18 160.35 530.91 158.44 526.40 157.56 C 505.98 152.32 484.98 149.65 464.00 147.98 C 456.58 148.78 449.32 146.47 441.92 146.97 C 435.83 147.33 429.67 146.25 423.65 147.54 C 418.21 148.76 412.62 147.21 407.18 148.33 C 403.11 149.10 398.93 148.84 394.87 149.72 C 390.31 151.10 386.38 147.07 381.85 147.63 C 377.95 147.95 374.07 148.64 370.38 149.97 C 357.83 143.47 344.56 138.23 330.76 135.08 C 330.70 134.63 330.56 133.74 330.50 133.29 C 355.21 126.83 380.54 122.47 406.01 120.87 Z" />
</g>
<g id="#ffffffff">
<path fill="#ffffff" opacity="1.00" d=" M 185.57 168.50 C 210.87 147.68 242.40 134.50 275.04 131.37 C 275.38 148.87 274.81 166.39 275.16 183.89 C 275.40 203.33 275.03 222.78 275.21 242.23 C 275.20 266.42 275.11 290.60 275.14 314.79 L 276.06 314.79 C 300.15 314.78 324.23 314.86 348.32 314.82 C 384.88 314.81 421.44 314.80 458.00 314.85 C 458.17 315.03 458.50 315.38 458.67 315.55 C 457.07 329.27 454.06 342.84 449.28 355.82 C 436.91 389.72 413.19 419.30 382.87 438.85 C 370.35 446.92 356.78 453.40 342.56 457.86 C 329.02 462.12 314.95 464.71 300.77 465.42 C 286.59 466.10 272.31 465.18 258.39 462.31 C 252.01 460.97 245.68 459.36 239.49 457.30 C 230.83 454.40 222.36 450.91 214.30 446.64 C 202.24 440.25 190.88 432.54 180.69 423.46 C 171.06 414.77 162.25 405.13 154.81 394.49 C 145.58 381.21 138.07 366.72 132.98 351.36 C 123.66 323.36 121.78 292.90 127.81 264.00 C 135.43 226.78 156.32 192.68 185.57 168.50 Z" />
<path fill="#ffffff" opacity="1.00" d=" M 308.65 131.44 C 316.10 132.06 323.47 133.44 330.76 135.08 C 344.56 138.23 357.83 143.47 370.38 149.97 C 383.48 156.93 395.61 165.68 406.47 175.79 C 414.28 183.01 421.26 191.10 427.54 199.67 C 431.19 204.65 434.48 209.88 437.58 215.21 C 444.93 228.04 450.45 241.89 454.17 256.19 C 456.04 263.35 457.38 270.64 458.26 277.99 C 458.39 279.11 458.52 280.24 458.65 281.37 C 424.54 281.38 390.42 281.41 356.31 281.39 C 340.41 281.33 324.51 281.44 308.61 281.39 C 308.65 274.26 308.58 267.12 308.62 259.99 C 308.67 247.92 308.56 235.84 308.61 223.77 C 308.68 214.26 308.55 204.75 308.62 195.25 C 308.69 186.88 308.56 178.52 308.62 170.16 C 308.71 161.01 308.53 151.85 308.63 142.71 C 308.74 138.95 308.64 135.19 308.65 131.44 Z" />
</g>
<g id="#f09d94ff">
<path fill="#f09d94" opacity="1.00" d=" M 294.27 147.30 C 298.93 145.43 303.47 142.84 308.63 142.71 C 308.53 151.85 308.71 161.01 308.62 170.16 C 307.97 170.30 306.67 170.60 306.01 170.75 C 305.01 169.86 304.02 168.97 303.03 168.09 C 300.20 169.36 297.28 171.58 294.20 169.70 C 288.23 171.44 282.25 174.25 275.83 173.16 C 275.93 167.20 275.57 161.22 276.24 155.30 C 282.30 152.75 288.15 149.73 294.27 147.30 Z" />
</g>
<g id="#f29389ff">
<path fill="#f29389" opacity="1.00" d=" M 381.85 147.63 C 386.38 147.07 390.31 151.10 394.87 149.72 C 398.93 148.84 403.11 149.10 407.18 148.33 C 412.62 147.21 418.21 148.76 423.65 147.54 C 429.67 146.25 435.83 147.33 441.92 146.97 C 449.32 146.47 456.58 148.78 464.00 147.98 C 484.98 149.65 505.98 152.32 526.40 157.56 C 530.91 158.44 535.18 160.35 539.79 160.76 L 539.90 160.77 C 540.04 162.18 540.21 163.59 540.35 165.01 C 541.46 175.01 540.72 185.08 540.96 195.11 C 515.60 185.94 488.86 181.00 462.03 178.90 C 455.65 179.31 449.38 177.80 443.01 177.88 C 438.35 177.06 433.66 176.74 428.94 177.00 C 425.55 177.28 423.30 174.01 420.03 173.88 C 415.44 173.70 410.90 174.68 406.47 175.79 C 395.61 165.68 383.48 156.93 370.38 149.97 C 374.07 148.64 377.95 147.95 381.85 147.63 Z" />
</g>
<g id="#ea5243ff">
<path fill="#ea5243" opacity="1.00" d=" M 540.35 165.01 C 553.90 165.07 567.59 164.41 580.97 167.06 C 618.03 173.44 651.57 197.04 670.34 229.60 C 681.93 249.32 688.00 272.18 688.00 295.04 C 687.99 375.02 688.01 454.99 687.99 534.97 C 687.97 553.57 684.03 572.20 676.21 589.10 C 660.81 623.13 630.01 649.75 594.05 659.91 C 582.36 663.28 570.20 665.00 558.04 665.00 C 477.35 664.99 396.66 665.02 315.97 664.99 C 278.73 664.63 242.17 647.17 218.40 618.52 C 201.71 598.71 191.15 573.80 188.66 548.00 C 197.49 548.05 206.33 547.86 215.16 547.97 C 227.81 548.14 240.45 547.83 253.10 547.97 C 269.79 548.24 286.49 547.70 303.18 547.96 C 323.21 548.25 343.25 547.78 363.29 547.87 C 380.33 548.26 397.39 547.83 414.44 547.94 C 443.85 547.64 472.75 536.04 495.17 517.15 C 505.34 507.91 514.91 497.78 521.84 485.83 C 534.92 465.12 541.32 440.44 540.98 416.00 C 540.81 386.46 541.30 356.90 540.93 327.36 C 540.79 315.62 541.27 303.88 540.93 292.15 C 540.69 277.52 541.30 262.89 540.97 248.26 C 540.85 240.56 541.16 232.86 540.95 225.17 C 540.84 215.15 541.14 205.13 540.96 195.11 C 540.72 185.08 541.46 175.01 540.35 165.01 Z" />
</g>
<g id="#eb9289ff">
<path fill="#eb9289" opacity="1.00" d=" M 294.20 169.70 C 297.28 171.58 300.20 169.36 303.03 168.09 C 304.02 168.97 305.01 169.86 306.01 170.75 C 306.67 170.60 307.97 170.30 308.62 170.16 C 308.56 178.52 308.69 186.88 308.62 195.25 C 306.40 196.18 304.48 194.54 302.33 194.44 C 300.33 194.84 298.68 196.21 296.88 197.11 C 296.09 196.24 295.50 195.24 294.98 194.21 C 290.70 196.61 285.72 197.40 281.80 200.43 C 281.01 200.18 280.23 199.93 279.44 199.68 C 278.63 200.41 277.83 201.15 277.02 201.88 C 275.03 196.13 276.74 189.85 275.88 183.90 C 275.67 180.32 275.77 176.74 275.83 173.16 C 282.25 174.25 288.23 171.44 294.20 169.70 Z" />
</g>
<g id="#f0867cff">
<path fill="#f0867c" opacity="1.00" d=" M 406.47 175.79 C 410.90 174.68 415.44 173.70 420.03 173.88 C 423.30 174.01 425.55 177.28 428.94 177.00 C 433.66 176.74 438.35 177.06 443.01 177.88 C 449.38 177.80 455.65 179.31 462.03 178.90 C 488.86 181.00 515.60 185.94 540.96 195.11 C 541.14 205.13 540.84 215.15 540.95 225.17 C 515.94 214.32 489.09 208.11 461.96 205.89 C 459.51 206.10 457.83 204.17 455.83 203.15 C 452.59 202.63 449.28 203.22 446.04 202.72 C 444.56 202.00 443.29 200.96 441.85 200.20 C 438.53 199.79 435.16 199.91 431.87 199.24 C 430.39 198.81 428.94 199.22 427.54 199.67 C 421.26 191.10 414.28 183.01 406.47 175.79 Z" />
</g>
<g id="#e8887eff">
<path fill="#e8887e" opacity="1.00" d=" M 275.16 183.89 L 275.88 183.90 C 276.74 189.85 275.03 196.13 277.02 201.88 C 277.83 201.15 278.63 200.41 279.44 199.68 C 280.23 199.93 281.01 200.18 281.80 200.43 C 285.72 197.40 290.70 196.61 294.98 194.21 C 295.50 195.24 296.09 196.24 296.88 197.11 C 298.68 196.21 300.33 194.84 302.33 194.44 C 304.48 194.54 306.40 196.18 308.62 195.25 C 308.55 204.75 308.68 214.26 308.61 223.77 C 306.57 225.07 304.54 226.37 302.46 227.61 C 302.23 227.05 301.76 225.94 301.53 225.38 C 299.91 226.46 298.29 227.54 296.65 228.60 C 296.17 227.84 295.69 227.09 295.22 226.33 C 290.01 230.82 283.38 233.00 277.65 236.70 C 276.26 238.21 275.82 240.32 275.21 242.23 C 275.03 222.78 275.40 203.33 275.16 183.89 Z" />
</g>
<g id="#ef7d72ff">
<path fill="#ef7d72" opacity="1.00" d=" M 427.54 199.67 C 428.94 199.22 430.39 198.81 431.87 199.24 C 435.16 199.91 438.53 199.79 441.85 200.20 C 443.29 200.96 444.56 202.00 446.04 202.72 C 449.28 203.22 452.59 202.63 455.83 203.15 C 457.83 204.17 459.51 206.10 461.96 205.89 C 489.09 208.11 515.94 214.32 540.95 225.17 C 541.16 232.86 540.85 240.56 540.97 248.26 C 535.79 246.71 531.56 242.40 525.96 242.40 C 522.70 238.92 517.54 237.55 512.89 237.49 C 512.68 237.24 512.27 236.74 512.07 236.49 C 511.37 236.51 510.68 236.54 510.00 236.57 C 508.33 234.27 505.32 234.00 502.80 233.23 C 497.58 232.10 492.47 229.86 487.04 230.44 C 484.26 227.68 479.92 228.52 476.38 228.26 C 475.15 226.94 474.10 225.42 472.64 224.34 C 469.15 223.58 464.75 225.15 462.09 222.14 C 465.42 221.59 468.70 222.90 472.04 222.59 C 468.31 220.61 463.85 221.74 460.09 219.88 C 457.69 218.76 454.90 219.41 452.46 218.44 C 447.74 216.50 442.65 215.63 437.58 215.21 C 434.48 209.88 431.19 204.65 427.54 199.67 Z" />
</g>
<g id="#ed7367ff">
<path fill="#ed7367" opacity="1.00" d=" M 437.58 215.21 C 442.65 215.63 447.74 216.50 452.46 218.44 C 454.90 219.41 457.69 218.76 460.09 219.88 C 463.85 221.74 468.31 220.61 472.04 222.59 C 468.70 222.90 465.42 221.59 462.09 222.14 C 464.75 225.15 469.15 223.58 472.64 224.34 C 474.10 225.42 475.15 226.94 476.38 228.26 C 479.92 228.52 484.26 227.68 487.04 230.44 C 492.47 229.86 497.58 232.10 502.80 233.23 C 505.32 234.00 508.33 234.27 510.00 236.57 C 510.68 236.54 511.37 236.51 512.07 236.49 C 512.27 236.74 512.68 237.24 512.89 237.49 C 517.54 237.55 522.70 238.92 525.96 242.40 C 531.56 242.40 535.79 246.71 540.97 248.26 C 541.30 262.89 540.69 277.52 540.93 292.15 C 534.76 287.92 528.74 283.46 522.20 279.80 C 514.81 275.33 506.67 272.32 498.59 269.37 C 494.05 268.43 494.96 261.70 490.62 260.45 C 485.83 259.15 481.05 257.66 476.12 256.95 C 477.08 259.14 478.65 261.13 478.89 263.58 C 478.22 263.64 476.87 263.76 476.20 263.82 C 471.76 262.60 467.90 259.46 463.15 259.58 C 464.42 259.30 465.68 258.98 466.94 258.63 C 465.09 257.12 462.55 258.33 460.42 258.31 C 459.47 256.72 458.58 255.07 457.23 253.78 C 456.20 254.57 455.19 255.38 454.17 256.19 C 450.45 241.89 444.93 228.04 437.58 215.21 Z" />
</g>
<g id="#e77d72ff">
<path fill="#e77d72" opacity="1.00" d=" M 302.46 227.61 C 304.54 226.37 306.57 225.07 308.61 223.77 C 308.56 235.84 308.67 247.92 308.62 259.99 C 305.38 261.93 301.67 262.36 298.05 262.92 C 295.29 265.50 291.78 266.93 288.87 269.29 C 288.23 269.08 287.59 268.88 286.96 268.68 C 284.76 270.68 282.83 273.17 279.83 273.99 C 279.53 274.96 279.23 275.94 278.93 276.91 C 277.59 277.54 275.78 278.10 276.17 280.00 C 275.94 291.28 276.01 302.59 276.07 313.88 L 276.06 314.79 L 275.14 314.79 C 275.11 290.60 275.20 266.42 275.21 242.23 C 275.82 240.32 276.26 238.21 277.65 236.70 C 283.38 233.00 290.01 230.82 295.22 226.33 C 295.69 227.09 296.17 227.84 296.65 228.60 C 298.29 227.54 299.91 226.46 301.53 225.38 C 301.76 225.94 302.23 227.05 302.46 227.61 Z" />
</g>
<g id="#e5675bff">
<path fill="#e5675b" opacity="1.00" d=" M 454.17 256.19 C 455.19 255.38 456.20 254.57 457.23 253.78 C 458.58 255.07 459.47 256.72 460.42 258.31 C 462.55 258.33 465.09 257.12 466.94 258.63 C 465.68 258.98 464.42 259.30 463.15 259.58 C 467.90 259.46 471.76 262.60 476.20 263.82 C 476.58 264.72 476.97 265.63 477.37 266.54 C 478.51 266.82 479.66 267.11 480.82 267.40 C 479.93 267.78 479.05 268.16 478.17 268.55 C 479.21 268.74 480.25 268.92 481.30 269.17 C 481.23 269.94 480.62 270.71 481.19 271.45 C 483.05 275.23 484.33 279.25 485.98 283.12 C 485.93 284.24 485.86 285.36 485.78 286.48 C 484.65 286.62 483.54 286.76 482.42 286.84 C 479.35 286.74 476.35 286.05 473.50 284.96 C 473.81 284.37 474.12 283.80 474.45 283.22 C 473.06 283.02 471.67 282.86 470.32 282.55 C 468.81 281.44 469.05 278.57 466.94 278.24 C 464.10 277.84 460.98 276.48 458.26 277.99 C 457.38 270.64 456.04 263.35 454.17 256.19 Z" />
</g>
<g id="#ed6a5dff">
<path fill="#ed6a5d" opacity="1.00" d=" M 476.12 256.95 C 481.05 257.66 485.83 259.15 490.62 260.45 C 494.96 261.70 494.05 268.43 498.59 269.37 C 506.67 272.32 514.81 275.33 522.20 279.80 C 528.74 283.46 534.76 287.92 540.93 292.15 C 541.27 303.88 540.79 315.62 540.93 327.36 C 538.20 324.63 536.14 321.32 533.31 318.70 C 524.76 311.05 515.64 303.91 505.35 298.72 C 503.18 297.62 500.60 296.46 499.93 293.88 C 500.47 293.16 500.72 292.31 500.67 291.42 C 497.97 291.24 495.13 292.25 492.58 290.99 C 492.86 290.40 493.14 289.81 493.44 289.23 C 492.15 288.67 490.87 288.11 489.60 287.54 C 489.12 286.28 488.65 285.03 488.19 283.77 C 487.64 283.61 486.54 283.29 485.98 283.12 C 484.33 279.25 483.05 275.23 481.19 271.45 C 480.62 270.71 481.23 269.94 481.30 269.17 C 480.25 268.92 479.21 268.74 478.17 268.55 C 479.05 268.16 479.93 267.78 480.82 267.40 C 479.66 267.11 478.51 266.82 477.37 266.54 C 476.97 265.63 476.58 264.72 476.20 263.82 C 476.87 263.76 478.22 263.64 478.89 263.58 C 478.65 261.13 477.08 259.14 476.12 256.95 Z" />
</g>
<g id="#e67469ff">
<path fill="#e67469" opacity="1.00" d=" M 298.05 262.92 C 301.67 262.36 305.38 261.93 308.62 259.99 C 308.58 267.12 308.65 274.26 308.61 281.39 C 307.66 282.15 306.71 282.93 305.78 283.72 C 305.88 287.02 304.36 289.83 302.56 292.47 C 301.91 296.85 302.59 301.92 299.56 305.59 C 297.51 308.21 295.72 311.01 293.71 313.67 C 287.84 314.15 281.95 313.84 276.07 313.88 C 276.01 302.59 275.94 291.28 276.17 280.00 C 275.78 278.10 277.59 277.54 278.93 276.91 C 279.23 275.94 279.53 274.96 279.83 273.99 C 282.83 273.17 284.76 270.68 286.96 268.68 C 287.59 268.88 288.23 269.08 288.87 269.29 C 291.78 266.93 295.29 265.50 298.05 262.92 Z" />
</g>
<g id="#f5aea6ff">
<path fill="#f5aea6" opacity="1.00" d=" M 125.68 264.56 C 125.97 263.47 126.68 263.28 127.81 264.00 C 121.78 292.90 123.66 323.36 132.98 351.36 C 131.85 351.92 131.25 352.80 131.17 353.99 C 130.10 362.92 129.28 371.88 128.67 380.85 C 127.34 387.85 128.42 394.97 127.94 402.02 C 126.63 410.28 126.48 418.77 127.81 427.04 C 128.59 434.13 127.28 441.32 128.60 448.37 C 130.85 481.37 136.32 514.39 147.08 545.76 C 136.25 543.79 125.72 540.34 115.73 535.72 L 115.72 535.59 C 115.67 532.30 114.78 529.14 113.97 525.99 C 108.86 503.40 105.19 480.45 103.51 457.35 C 102.24 451.84 103.54 446.16 102.37 440.65 C 101.41 435.46 102.10 430.17 101.93 424.93 C 101.70 415.61 102.13 406.29 101.88 396.97 C 101.59 391.25 103.43 385.67 102.88 379.94 C 105.61 340.78 112.36 301.60 125.68 264.56 Z" />
</g>
<g id="#e46154ff">
<path fill="#e46154" opacity="1.00" d=" M 458.26 277.99 C 460.98 276.48 464.10 277.84 466.94 278.24 C 469.05 278.57 468.81 281.44 470.32 282.55 C 471.67 282.86 473.06 283.02 474.45 283.22 C 474.12 283.80 473.81 284.37 473.50 284.96 C 476.35 286.05 479.35 286.74 482.42 286.84 C 480.61 289.51 483.87 291.36 485.68 292.79 C 485.09 292.92 483.91 293.18 483.33 293.32 C 484.10 293.73 484.88 294.15 485.66 294.57 C 485.40 299.23 483.28 303.42 480.60 307.14 C 480.88 308.05 481.17 308.97 481.47 309.90 C 480.27 312.12 477.88 312.86 475.57 313.35 C 475.91 313.92 476.25 314.50 476.60 315.08 C 472.74 314.34 468.89 312.15 464.91 313.42 C 468.92 314.93 473.90 314.56 477.09 317.78 C 471.97 317.09 467.18 314.98 462.08 314.16 C 462.94 315.04 463.80 315.92 464.67 316.81 C 463.13 316.86 461.59 316.91 460.06 316.97 C 459.71 316.62 459.02 315.90 458.67 315.55 C 458.50 315.38 458.17 315.03 458.00 314.85 C 421.44 314.80 384.88 314.81 348.32 314.82 C 348.57 312.95 348.37 311.08 347.81 309.30 C 348.44 308.69 349.07 308.10 349.71 307.51 C 348.96 305.86 348.64 304.14 349.07 302.38 C 348.20 300.17 348.96 297.86 350.22 295.98 C 351.74 294.55 353.71 293.72 355.47 292.62 C 354.83 291.36 354.10 290.13 353.63 288.80 C 353.56 286.71 355.29 285.22 356.36 283.62 C 356.34 283.06 356.32 281.94 356.31 281.39 C 390.42 281.41 424.54 281.38 458.65 281.37 C 458.52 280.24 458.39 279.11 458.26 277.99 Z" />
</g>
<g id="#ea6c60ff">
<path fill="#ea6c60" opacity="1.00" d=" M 305.78 283.72 C 306.71 282.93 307.66 282.15 308.61 281.39 C 324.51 281.44 340.41 281.33 356.31 281.39 C 356.32 281.94 356.34 283.06 356.36 283.62 C 355.29 285.22 353.56 286.71 353.63 288.80 C 354.10 290.13 354.83 291.36 355.47 292.62 C 353.71 293.72 351.74 294.55 350.22 295.98 C 348.96 297.86 348.20 300.17 349.07 302.38 C 348.64 304.14 348.96 305.86 349.71 307.51 C 349.07 308.10 348.44 308.69 347.81 309.30 C 348.37 311.08 348.57 312.95 348.32 314.82 C 324.23 314.86 300.15 314.78 276.06 314.79 L 276.07 313.88 C 281.95 313.84 287.84 314.15 293.71 313.67 C 295.72 311.01 297.51 308.21 299.56 305.59 C 302.59 301.92 301.91 296.85 302.56 292.47 C 304.36 289.83 305.88 287.02 305.78 283.72 Z" />
</g>
<g id="#ec6153ff">
<path fill="#ec6153" opacity="1.00" d=" M 485.98 283.12 C 486.54 283.29 487.64 283.61 488.19 283.77 C 488.65 285.03 489.12 286.28 489.60 287.54 C 490.87 288.11 492.15 288.67 493.44 289.23 C 493.14 289.81 492.86 290.40 492.58 290.99 C 495.13 292.25 497.97 291.24 500.67 291.42 C 500.72 292.31 500.47 293.16 499.93 293.88 C 500.60 296.46 503.18 297.62 505.35 298.72 C 515.64 303.91 524.76 311.05 533.31 318.70 C 536.14 321.32 538.20 324.63 540.93 327.36 C 541.30 356.90 540.81 386.46 540.98 416.00 C 541.32 440.44 534.92 465.12 521.84 485.83 C 514.91 497.78 505.34 507.91 495.17 517.15 C 472.75 536.04 443.85 547.64 414.44 547.94 C 410.97 545.83 406.83 545.94 403.01 544.96 C 380.87 540.01 359.39 529.90 343.17 513.81 C 340.97 511.86 338.03 511.08 335.73 509.30 C 333.19 507.11 331.71 504.00 329.26 501.75 C 326.69 500.74 323.44 500.93 322.08 498.02 C 321.61 497.09 321.14 496.17 320.67 495.26 C 323.30 495.16 326.20 494.88 328.36 496.75 C 330.19 498.38 333.39 497.62 333.98 495.14 C 335.44 496.77 336.97 498.35 338.57 499.85 C 338.59 499.06 338.61 498.27 338.64 497.49 C 341.89 496.98 345.07 496.13 348.30 495.55 C 349.65 495.44 350.24 494.02 351.14 493.22 C 352.20 493.95 353.26 494.68 354.33 495.43 C 356.35 494.82 358.29 493.97 360.33 493.42 C 361.95 493.39 363.37 494.43 364.87 494.96 C 363.58 493.34 362.31 491.71 361.18 489.99 C 362.64 490.66 364.02 491.48 365.27 492.52 C 365.94 493.22 366.61 493.93 367.28 494.65 C 369.14 494.06 370.93 493.30 372.71 492.51 C 376.80 495.08 380.13 499.11 384.79 500.63 C 388.02 499.14 391.38 497.88 394.89 497.19 C 398.03 497.91 400.69 500.05 403.87 500.60 C 407.95 497.88 412.39 500.68 416.63 501.40 C 423.66 502.81 430.82 503.67 437.97 504.11 C 447.86 503.44 457.79 502.20 467.33 499.40 C 477.54 495.73 487.55 491.00 495.78 483.81 C 502.48 479.19 507.14 472.41 511.99 466.02 C 519.69 454.01 524.73 440.26 526.00 426.01 C 527.23 419.05 527.53 411.93 526.13 404.96 C 524.74 388.74 518.81 372.91 509.02 359.90 C 507.94 358.04 509.71 355.48 508.15 353.78 C 504.48 349.48 500.23 345.76 495.88 342.19 C 492.78 337.72 489.12 333.26 488.16 327.76 C 481.12 323.58 473.37 320.52 465.37 318.79 C 463.56 318.30 461.45 318.39 460.06 316.97 C 461.59 316.91 463.13 316.86 464.67 316.81 C 463.80 315.92 462.94 315.04 462.08 314.16 C 467.18 314.98 471.97 317.09 477.09 317.78 C 473.90 314.56 468.92 314.93 464.91 313.42 C 468.89 312.15 472.74 314.34 476.60 315.08 C 476.25 314.50 475.91 313.92 475.57 313.35 C 477.88 312.86 480.27 312.12 481.47 309.90 C 481.17 308.97 480.88 308.05 480.60 307.14 C 483.28 303.42 485.40 299.23 485.66 294.57 C 484.88 294.15 484.10 293.73 483.33 293.32 C 483.91 293.18 485.09 292.92 485.68 292.79 C 483.87 291.36 480.61 289.51 482.42 286.84 C 483.54 286.76 484.65 286.62 485.78 286.48 C 485.86 285.36 485.93 284.24 485.98 283.12 Z" />
</g>
<g id="#ea5b4dff">
<path fill="#ea5b4d" opacity="1.00" d=" M 458.67 315.55 C 459.02 315.90 459.71 316.62 460.06 316.97 C 461.45 318.39 463.56 318.30 465.37 318.79 C 473.37 320.52 481.12 323.58 488.16 327.76 C 489.12 333.26 492.78 337.72 495.88 342.19 C 500.23 345.76 504.48 349.48 508.15 353.78 C 509.71 355.48 507.94 358.04 509.02 359.90 C 518.81 372.91 524.74 388.74 526.13 404.96 C 527.53 411.93 527.23 419.05 526.00 426.01 C 524.73 440.26 519.69 454.01 511.99 466.02 C 507.14 472.41 502.48 479.19 495.78 483.81 C 487.55 491.00 477.54 495.73 467.33 499.40 C 457.79 502.20 447.86 503.44 437.97 504.11 C 430.82 503.67 423.66 502.81 416.63 501.40 C 412.39 500.68 407.95 497.88 403.87 500.60 C 400.69 500.05 398.03 497.91 394.89 497.19 C 391.38 497.88 388.02 499.14 384.79 500.63 C 380.13 499.11 376.80 495.08 372.71 492.51 C 370.93 493.30 369.14 494.06 367.28 494.65 C 366.61 493.93 365.94 493.22 365.27 492.52 C 364.76 490.84 364.47 488.92 366.48 488.16 C 366.08 487.42 365.68 486.70 365.27 486.00 C 367.67 485.74 370.17 484.78 372.55 485.62 C 375.10 486.55 377.91 486.02 380.41 487.20 C 386.01 486.37 390.95 483.35 396.01 480.98 C 397.61 480.05 399.34 481.23 400.96 481.56 C 400.45 480.67 399.95 479.77 399.47 478.89 C 401.49 478.36 403.47 479.20 405.48 479.42 C 405.13 478.28 404.62 477.20 404.09 476.16 C 406.02 476.09 408.62 477.64 410.15 476.05 C 408.71 475.05 407.31 474.01 405.98 472.89 C 406.27 472.48 406.85 471.65 407.14 471.24 C 409.06 471.51 410.99 471.76 412.92 472.05 C 412.07 471.43 411.23 470.84 410.41 470.22 C 410.55 469.97 410.84 469.46 410.99 469.21 C 411.93 468.53 412.90 467.89 413.87 467.25 C 413.37 466.52 412.87 465.79 412.38 465.07 C 414.87 465.46 417.59 465.75 419.53 463.76 C 419.13 462.86 418.73 461.96 418.34 461.07 C 420.52 461.77 422.72 462.44 424.95 462.99 C 425.56 462.57 426.18 462.14 426.80 461.73 C 426.25 461.40 425.15 460.75 424.60 460.42 C 424.87 459.30 425.22 458.21 425.68 457.16 C 427.40 457.44 429.12 457.78 430.88 457.94 C 433.35 456.81 435.06 454.56 436.73 452.49 C 435.87 452.11 435.00 451.73 434.15 451.36 C 436.13 451.01 438.23 450.94 440.09 450.07 C 442.11 448.74 443.27 446.51 444.84 444.73 C 447.18 441.72 450.94 440.07 452.77 436.61 C 458.26 429.07 464.30 421.85 468.60 413.52 C 471.37 408.28 475.04 403.42 476.66 397.65 C 477.38 395.46 476.01 393.38 475.51 391.30 C 476.17 390.72 476.85 390.14 477.53 389.58 C 478.37 389.91 479.21 390.24 480.06 390.57 C 479.95 388.63 479.23 386.84 478.42 385.11 C 479.58 382.96 481.78 380.51 479.86 378.11 C 477.98 375.74 481.20 372.33 478.76 370.30 C 473.26 365.96 467.49 361.82 461.04 359.02 C 457.21 357.63 453.07 357.35 449.28 355.82 C 454.06 342.84 457.07 329.27 458.67 315.55 Z" />
</g>
<g id="#f4a49cff">
<path fill="#f4a49c" opacity="1.00" d=" M 131.17 353.99 C 131.25 352.80 131.85 351.92 132.98 351.36 C 138.07 366.72 145.58 381.21 154.81 394.49 C 152.97 401.19 154.53 408.19 153.94 415.03 C 153.51 418.53 155.69 421.57 155.86 424.99 C 156.10 430.69 157.43 436.32 156.91 442.05 C 159.28 475.90 165.02 509.83 177.27 541.62 C 178.10 543.69 178.74 545.83 179.30 547.99 C 168.53 548.13 157.68 547.93 147.08 545.76 C 136.32 514.39 130.85 481.37 128.60 448.37 C 127.28 441.32 128.59 434.13 127.81 427.04 C 126.48 418.77 126.63 410.28 127.94 402.02 C 128.42 394.97 127.34 387.85 128.67 380.85 C 129.28 371.88 130.10 362.92 131.17 353.99 Z" />
</g>
<g id="#e15447ff">
<path fill="#e15447" opacity="1.00" d=" M 382.87 438.85 C 413.19 419.30 436.91 389.72 449.28 355.82 C 453.07 357.35 457.21 357.63 461.04 359.02 C 467.49 361.82 473.26 365.96 478.76 370.30 C 481.20 372.33 477.98 375.74 479.86 378.11 C 481.78 380.51 479.58 382.96 478.42 385.11 C 479.23 386.84 479.95 388.63 480.06 390.57 C 479.21 390.24 478.37 389.91 477.53 389.58 C 476.85 390.14 476.17 390.72 475.51 391.30 C 476.01 393.38 477.38 395.46 476.66 397.65 C 475.04 403.42 471.37 408.28 468.60 413.52 C 464.30 421.85 458.26 429.07 452.77 436.61 C 450.94 440.07 447.18 441.72 444.84 444.73 C 443.27 446.51 442.11 448.74 440.09 450.07 C 438.23 450.94 436.13 451.01 434.15 451.36 C 435.00 451.73 435.87 452.11 436.73 452.49 C 435.06 454.56 433.35 456.81 430.88 457.94 C 429.12 457.78 427.40 457.44 425.68 457.16 C 425.22 458.21 424.87 459.30 424.60 460.42 C 425.15 460.75 426.25 461.40 426.80 461.73 C 426.18 462.14 425.56 462.57 424.95 462.99 C 422.72 462.44 420.52 461.77 418.34 461.07 C 418.73 461.96 419.13 462.86 419.53 463.76 C 417.59 465.75 414.87 465.46 412.38 465.07 C 412.87 465.79 413.37 466.52 413.87 467.25 C 412.90 467.89 411.93 468.53 410.99 469.21 C 404.26 464.69 396.84 460.67 391.96 454.00 C 388.39 449.31 384.80 444.49 382.87 438.85 Z" />
</g>
<g id="#f3988fff">
<path fill="#f3988f" opacity="1.00" d=" M 153.94 415.03 C 154.53 408.19 152.97 401.19 154.81 394.49 C 162.25 405.13 171.06 414.77 180.69 423.46 C 180.01 428.19 180.78 433.37 183.83 437.17 C 184.52 440.92 183.27 444.86 184.56 448.54 C 186.58 453.73 186.15 459.43 187.88 464.70 C 188.47 464.33 189.08 463.96 189.68 463.59 C 192.68 471.73 193.10 480.50 195.19 488.87 C 198.22 501.90 201.62 514.91 206.61 527.35 C 208.95 534.43 212.74 540.92 215.16 547.97 C 206.33 547.86 197.49 548.05 188.66 548.00 C 185.54 547.99 182.42 548.01 179.30 547.99 C 178.74 545.83 178.10 543.69 177.27 541.62 C 165.02 509.83 159.28 475.90 156.91 442.05 C 157.43 436.32 156.10 430.69 155.86 424.99 C 155.69 421.57 153.51 418.53 153.94 415.03 Z" />
</g>
<g id="#f18b81ff">
<path fill="#f18b81" opacity="1.00" d=" M 183.83 437.17 C 180.78 433.37 180.01 428.19 180.69 423.46 C 190.88 432.54 202.24 440.25 214.30 446.64 C 211.18 449.43 212.66 453.49 213.17 457.02 C 213.30 459.08 215.34 460.19 216.00 462.03 C 216.92 464.75 216.70 467.95 218.70 470.22 C 221.65 473.33 220.92 477.91 222.46 481.64 C 223.63 483.69 226.22 484.63 227.11 486.89 C 230.31 497.46 233.42 508.12 237.78 518.29 C 240.49 523.65 242.21 529.48 245.42 534.59 C 248.04 539.01 250.61 543.47 253.10 547.97 C 240.45 547.83 227.81 548.14 215.16 547.97 C 212.74 540.92 208.95 534.43 206.61 527.35 C 201.62 514.91 198.22 501.90 195.19 488.87 C 193.10 480.50 192.68 471.73 189.68 463.59 C 189.08 463.96 188.47 464.33 187.88 464.70 C 186.15 459.43 186.58 453.73 184.56 448.54 C 183.27 444.86 184.52 440.92 183.83 437.17 Z" />
</g>
<g id="#e2594bff">
<path fill="#e2594b" opacity="1.00" d=" M 342.56 457.86 C 356.78 453.40 370.35 446.92 382.87 438.85 C 384.80 444.49 388.39 449.31 391.96 454.00 C 396.84 460.67 404.26 464.69 410.99 469.21 C 410.84 469.46 410.55 469.97 410.41 470.22 C 411.23 470.84 412.07 471.43 412.92 472.05 C 410.99 471.76 409.06 471.51 407.14 471.24 C 406.85 471.65 406.27 472.48 405.98 472.89 C 407.31 474.01 408.71 475.05 410.15 476.05 C 408.62 477.64 406.02 476.09 404.09 476.16 C 404.62 477.20 405.13 478.28 405.48 479.42 C 403.47 479.20 401.49 478.36 399.47 478.89 C 399.95 479.77 400.45 480.67 400.96 481.56 C 399.34 481.23 397.61 480.05 396.01 480.98 C 390.95 483.35 386.01 486.37 380.41 487.20 C 377.91 486.02 375.10 486.55 372.55 485.62 C 370.17 484.78 367.67 485.74 365.27 486.00 C 363.49 484.63 361.98 483.00 360.90 481.04 C 358.80 478.91 355.56 478.74 352.76 478.27 C 348.66 473.42 345.72 467.72 342.98 462.03 C 342.21 460.75 342.39 459.26 342.56 457.86 Z" />
</g>
<g id="#ef7e72ff">
<path fill="#ef7e72" opacity="1.00" d=" M 214.30 446.64 C 222.36 450.91 230.83 454.40 239.49 457.30 C 239.34 458.90 239.25 460.51 239.21 462.12 C 239.56 462.30 240.27 462.66 240.62 462.84 C 240.41 464.14 240.16 465.45 240.10 466.78 C 244.15 469.74 244.88 475.58 249.29 478.23 C 251.10 479.18 251.34 481.47 252.48 483.02 C 252.55 481.97 252.62 480.92 252.68 479.88 C 254.62 482.49 256.27 485.88 259.78 486.57 C 260.40 488.77 260.76 491.12 262.04 493.06 C 263.44 494.02 265.05 494.63 266.49 495.54 C 268.71 498.25 269.43 501.81 270.92 504.92 C 272.74 505.65 274.90 506.22 275.62 508.29 C 282.67 522.87 292.48 535.88 303.18 547.96 C 286.49 547.70 269.79 548.24 253.10 547.97 C 250.61 543.47 248.04 539.01 245.42 534.59 C 242.21 529.48 240.49 523.65 237.78 518.29 C 233.42 508.12 230.31 497.46 227.11 486.89 C 226.22 484.63 223.63 483.69 222.46 481.64 C 220.92 477.91 221.65 473.33 218.70 470.22 C 216.70 467.95 216.92 464.75 216.00 462.03 C 215.34 460.19 213.30 459.08 213.17 457.02 C 212.66 453.49 211.18 449.43 214.30 446.64 Z" />
</g>
<g id="#e7756aff">
<path fill="#e7756a" opacity="1.00" d=" M 239.49 457.30 C 245.68 459.36 252.01 460.97 258.39 462.31 C 258.29 463.76 258.20 465.21 258.11 466.67 C 258.84 466.06 259.57 465.47 260.30 464.87 C 261.97 470.59 265.26 475.58 268.55 480.49 C 270.18 482.93 270.42 486.30 273.04 488.02 C 273.36 488.87 273.67 489.73 273.97 490.60 C 270.89 490.40 267.99 489.35 265.11 488.33 C 264.34 488.81 263.57 489.30 262.80 489.80 C 262.93 487.85 261.62 486.74 259.78 486.57 C 256.27 485.88 254.62 482.49 252.68 479.88 C 252.62 480.92 252.55 481.97 252.48 483.02 C 251.34 481.47 251.10 479.18 249.29 478.23 C 244.88 475.58 244.15 469.74 240.10 466.78 C 240.16 465.45 240.41 464.14 240.62 462.84 C 240.27 462.66 239.56 462.30 239.21 462.12 C 239.25 460.51 239.34 458.90 239.49 457.30 Z" />
</g>
<g id="#e36054ff">
<path fill="#e36054" opacity="1.00" d=" M 300.77 465.42 C 314.95 464.71 329.02 462.12 342.56 457.86 C 342.39 459.26 342.21 460.75 342.98 462.03 C 345.72 467.72 348.66 473.42 352.76 478.27 C 355.56 478.74 358.80 478.91 360.90 481.04 C 361.98 483.00 363.49 484.63 365.27 486.00 C 365.68 486.70 366.08 487.42 366.48 488.16 C 364.47 488.92 364.76 490.84 365.27 492.52 C 364.02 491.48 362.64 490.66 361.18 489.99 C 362.31 491.71 363.58 493.34 364.87 494.96 C 363.37 494.43 361.95 493.39 360.33 493.42 C 358.29 493.97 356.35 494.82 354.33 495.43 C 353.26 494.68 352.20 493.95 351.14 493.22 C 350.24 494.02 349.65 495.44 348.30 495.55 C 345.07 496.13 341.89 496.98 338.64 497.49 C 338.61 498.27 338.59 499.06 338.57 499.85 C 336.97 498.35 335.44 496.77 333.98 495.14 C 333.39 497.62 330.19 498.38 328.36 496.75 C 326.20 494.88 323.30 495.16 320.67 495.26 C 319.34 493.16 318.04 491.04 316.49 489.11 C 316.41 490.05 316.33 491.00 316.26 491.96 C 315.76 491.91 314.76 491.81 314.26 491.76 C 312.73 489.81 311.81 487.50 310.69 485.32 C 309.55 482.90 307.07 481.44 305.99 479.00 C 304.03 474.56 302.49 469.95 300.77 465.42 Z" />
</g>
<g id="#e56b5fff">
<path fill="#e56b5f" opacity="1.00" d=" M 258.39 462.31 C 272.31 465.18 286.59 466.10 300.77 465.42 C 302.49 469.95 304.03 474.56 305.99 479.00 C 307.07 481.44 309.55 482.90 310.69 485.32 C 311.81 487.50 312.73 489.81 314.26 491.76 C 314.76 491.81 315.76 491.91 316.26 491.96 C 316.33 491.00 316.41 490.05 316.49 489.11 C 318.04 491.04 319.34 493.16 320.67 495.26 C 321.14 496.17 321.61 497.09 322.08 498.02 C 319.61 497.68 317.13 497.52 314.64 497.66 C 312.21 498.01 310.11 496.20 307.70 496.45 C 305.68 496.60 303.69 497.01 301.70 497.33 C 299.95 494.01 296.21 492.67 293.68 490.09 C 292.23 490.99 290.80 491.93 289.41 492.91 C 289.38 493.58 289.35 494.25 289.33 494.93 C 288.06 494.13 286.76 493.37 285.44 492.67 C 284.82 493.31 284.21 493.96 283.61 494.61 C 283.36 494.15 282.87 493.23 282.62 492.77 C 281.93 492.96 281.24 493.17 280.56 493.39 C 279.49 492.11 278.74 490.59 277.62 489.37 C 276.18 488.65 274.57 488.41 273.04 488.02 C 270.42 486.30 270.18 482.93 268.55 480.49 C 265.26 475.58 261.97 470.59 260.30 464.87 C 259.57 465.47 258.84 466.06 258.11 466.67 C 258.20 465.21 258.29 463.76 258.39 462.31 Z" />
</g>
<g id="#ed7064ff">
<path fill="#ed7064" opacity="1.00" d=" M 259.78 486.57 C 261.62 486.74 262.93 487.85 262.80 489.80 C 263.57 489.30 264.34 488.81 265.11 488.33 C 267.99 489.35 270.89 490.40 273.97 490.60 C 273.67 489.73 273.36 488.87 273.04 488.02 C 274.57 488.41 276.18 488.65 277.62 489.37 C 278.74 490.59 279.49 492.11 280.56 493.39 C 281.24 493.17 281.93 492.96 282.62 492.77 C 282.87 493.23 283.36 494.15 283.61 494.61 C 284.21 493.96 284.82 493.31 285.44 492.67 C 286.76 493.37 288.06 494.13 289.33 494.93 C 289.35 494.25 289.38 493.58 289.41 492.91 C 290.80 491.93 292.23 490.99 293.68 490.09 C 296.21 492.67 299.95 494.01 301.70 497.33 C 302.85 500.36 306.77 499.94 308.67 502.30 C 311.78 504.25 313.93 507.08 315.78 510.19 C 321.38 513.84 325.38 519.25 329.76 524.18 C 334.33 527.61 338.14 531.94 342.84 535.21 C 349.42 539.80 356.08 544.31 363.29 547.87 C 343.25 547.78 323.21 548.25 303.18 547.96 C 292.48 535.88 282.67 522.87 275.62 508.29 C 274.90 506.22 272.74 505.65 270.92 504.92 C 269.43 501.81 268.71 498.25 266.49 495.54 C 265.05 494.63 263.44 494.02 262.04 493.06 C 260.76 491.12 260.40 488.77 259.78 486.57 Z" />
</g>
<g id="#ed695cff">
<path fill="#ed695c" opacity="1.00" d=" M 301.70 497.33 C 303.69 497.01 305.68 496.60 307.70 496.45 C 310.11 496.20 312.21 498.01 314.64 497.66 C 317.13 497.52 319.61 497.68 322.08 498.02 C 323.44 500.93 326.69 500.74 329.26 501.75 C 331.71 504.00 333.19 507.11 335.73 509.30 C 338.03 511.08 340.97 511.86 343.17 513.81 C 359.39 529.90 380.87 540.01 403.01 544.96 C 406.83 545.94 410.97 545.83 414.44 547.94 C 397.39 547.83 380.33 548.26 363.29 547.87 C 356.08 544.31 349.42 539.80 342.84 535.21 C 338.14 531.94 334.33 527.61 329.76 524.18 C 325.38 519.25 321.38 513.84 315.78 510.19 C 313.93 507.08 311.78 504.25 308.67 502.30 C 306.77 499.94 302.85 500.36 301.70 497.33 Z" />
</g>
</svg>
