<?xml version="1.0" encoding="UTF-8" standalone="no"?>
<!DOCTYPE svg PUBLIC "-//W3C//DTD SVG 1.1//EN" "http://www.w3.org/Graphics/SVG/1.1/DTD/svg11.dtd">
<svg xmlns="http://www.w3.org/2000/svg" version="1.1" viewBox="0.00 0.00 2487.00 843.00">
<path fill="#ea5243" d="
  M 1898.12 592.43
  C 1892.73 589.41 1887.76 587.44 1887.76 580.24
  Q 1887.74 421.74 1887.75 263.25
  C 1887.75 259.82 1890.88 257.36 1894.02 255.57
  Q 2033.94 175.87 2173.72 95.94
  C 2177.21 93.95 2179.51 94.01 2182.83 95.90
  Q 2322.82 175.75 2462.73 255.73
  C 2464.88 256.96 2466.16 261.04 2466.18 263.81
  Q 2466.62 322.66 2466.48 381.50
  Q 2466.48 382.98 2466.11 387.02
  Q 2466.06 387.60 2465.53 387.35
  Q 2462.16 385.75 2459.05 383.97
  Q 2323.54 306.65 2188.10 229.23
  C 2181.78 225.61 2178.74 223.37 2172.41 226.98
  Q 2090.39 273.75 2008.16 320.14
  C 2005.30 321.75 2004.22 324.93 2004.23 328.34
  Q 2004.34 419.52 2004.15 510.70
  C 2004.14 518.44 2004.00 520.80 2011.29 524.95
  Q 2146.53 601.81 2281.71 678.76
  Q 2287.36 681.98 2291.85 684.86
  Q 2293.36 685.83 2291.79 686.70
  Q 2236.47 717.42 2182.78 747.24
  C 2180.19 748.68 2177.20 749.13 2174.75 747.75
  Q 2036.55 669.88 1898.12 592.43
  Z"
/>
<path fill="#e0e0e0" d="
  M 145.75 581.47
  C 89.30 581.34 38.74 541.99 26.45 486.77
  C 15.62 438.12 34.08 388.05 73.45 357.71
  C 82.33 350.87 91.74 346.36 102.57 340.85
  C 108.36 337.90 111.68 339.46 114.55 344.98
  Q 119.88 355.20 125.16 365.42
  C 128.22 371.36 126.86 375.08 121.21 377.92
  Q 111.49 382.82 108.80 384.33
  C 76.24 402.61 59.59 438.97 66.75 475.51
  C 74.09 512.92 108.95 540.24 146.57 539.91
  C 217.34 539.28 283.42 540.09 334.50 539.97
  C 353.30 539.93 367.50 533.52 367.50 511.74
  Q 367.50 345.25 367.50 178.75
  C 367.50 174.05 370.27 171.70 374.95 171.57
  Q 388.25 171.19 401.52 171.53
  C 406.17 171.65 409.49 173.37 409.49 178.31
  Q 409.52 343.78 409.42 509.25
  C 409.40 542.00 393.30 569.57 360.57 578.61
  C 352.47 580.85 344.08 581.47 334.66 581.48
  Q 187.90 581.57 145.75 581.47
  Z"
/>
<path fill="#e0e0e0" d="
  M 857.75 560.18
  C 845.40 574.21 825.84 581.28 807.56 581.42
  Q 778.78 581.64 695.00 581.47
  C 673.12 581.43 653.63 575.96 638.69 559.56
  C 626.72 546.41 621.25 528.13 621.25 510.44
  Q 621.20 344.97 621.27 179.50
  C 621.28 173.66 623.79 171.56 629.55 171.49
  Q 648.03 171.29 656.00 171.51
  C 662.26 171.69 662.99 176.08 662.99 181.56
  Q 663.01 346.28 663.00 511.00
  C 663.00 520.99 666.52 532.05 675.99 536.54
  C 683.43 540.08 690.78 539.93 701.03 539.95
  Q 748.39 540.04 795.75 539.84
  C 802.52 539.81 810.31 540.26 816.35 538.35
  C 832.66 533.18 834.44 520.49 834.46 504.42
  Q 834.56 412.22 834.67 319.99
  C 834.68 312.83 836.00 310.32 843.54 310.28
  Q 855.77 310.20 868.00 310.23
  Q 875.76 310.24 875.78 318.06
  Q 876.01 418.03 876.00 518.00
  C 876.00 534.91 894.16 539.48 907.44 539.62
  Q 948.59 540.04 989.75 539.97
  C 1002.00 539.94 1017.15 540.89 1024.76 529.50
  C 1029.00 523.15 1029.73 515.14 1029.73 506.52
  Q 1029.76 412.90 1029.75 319.28
  C 1029.75 314.54 1031.01 310.38 1036.31 310.32
  Q 1050.28 310.16 1064.24 310.27
  C 1069.73 310.31 1071.25 313.60 1071.25 318.71
  Q 1071.26 415.11 1071.47 511.50
  C 1071.48 518.59 1070.97 525.24 1076.05 530.80
  C 1082.30 537.65 1095.94 539.53 1105.00 539.68
  Q 1126.78 540.04 1141.25 540.00
  C 1166.30 539.94 1176.23 532.10 1176.24 506.31
  Q 1176.26 419.92 1176.25 333.53
  C 1176.25 329.38 1177.79 325.35 1182.31 325.30
  Q 1195.60 325.18 1208.90 325.28
  C 1214.81 325.32 1217.75 326.94 1217.75 333.07
  Q 1217.73 425.41 1217.73 517.75
  C 1217.73 535.07 1235.48 539.30 1249.32 539.63
  Q 1277.86 540.30 1296.50 539.70
  C 1312.73 539.18 1322.50 527.81 1322.50 511.91
  Q 1322.49 414.74 1322.51 317.56
  C 1322.52 311.23 1326.76 310.31 1332.29 310.28
  Q 1344.54 310.19 1356.75 310.23
  C 1363.24 310.26 1364.23 314.39 1364.23 320.12
  Q 1364.28 410.74 1364.23 501.36
  Q 1364.22 513.58 1365.76 518.48
  C 1370.79 534.50 1387.14 539.71 1402.70 539.84
  Q 1464.76 540.38 1506.50 539.77
  C 1524.34 539.51 1533.74 528.10 1533.74 510.95
  Q 1533.75 414.73 1533.76 318.50
  C 1533.76 310.79 1538.32 310.27 1544.95 310.25
  Q 1556.49 310.22 1568.00 310.27
  Q 1575.70 310.30 1575.71 318.00
  Q 1575.75 414.25 1575.75 510.50
  C 1575.75 547.58 1552.34 576.86 1514.37 580.90
  Q 1509.15 581.46 1498.98 581.47
  Q 1454.87 581.54 1410.75 581.48
  C 1387.14 581.45 1365.53 574.95 1348.90 557.74
  Q 1348.57 557.40 1348.26 557.76
  C 1328.00 582.10 1301.22 581.77 1272.27 581.52
  C 1245.83 581.29 1220.30 579.90 1200.38 560.06
  Q 1200.01 559.69 1199.66 560.08
  C 1186.69 574.63 1167.93 580.97 1148.81 581.36
  C 1115.05 582.05 1079.26 584.72 1054.05 560.28
  Q 1053.66 559.91 1053.30 560.30
  C 1039.84 574.56 1021.95 581.05 1002.43 581.22
  Q 961.72 581.57 921.01 581.67
  C 898.11 581.72 874.61 576.13 858.52 560.16
  A 0.53 0.53 0.0 0 0 857.75 560.18
  Z"
/>
<rect fill="#e0e0e0" x="1647.25" y="171.40" width="41.74" height="410.08" rx="6.70"/>
<rect fill="#e0e0e0" x="-21.75" y="-24.24" transform="translate(817.26,218.72) rotate(0.1)" width="43.50" height="48.48" rx="6.60"/>
<rect fill="#e0e0e0" x="871.50" y="194.49" width="42.98" height="48.48" rx="6.68"/>
<path fill="#e0e0e0" d="
  M 222.56 350.73
  Q 250.36 350.80 278.14 350.74
  C 282.21 350.74 285.14 351.41 285.21 356.00
  Q 285.31 362.59 285.23 369.08
  A 4.48 4.48 0.0 0 1 280.75 373.50
  L 182.73 373.50
  A 4.47 4.47 0.0 0 1 178.26 369.05
  Q 178.23 362.72 178.23 355.75
  C 178.23 351.54 180.93 350.75 184.69 350.77
  Q 191.67 350.81 198.67 350.72
  Q 199.23 350.71 199.24 350.15
  C 199.28 336.64 197.77 318.29 200.54 307.12
  C 209.20 272.16 258.44 262.57 277.47 294.29
  Q 282.17 302.11 283.43 307.57
  C 284.92 314.01 274.80 316.22 270.31 317.96
  C 263.21 320.72 261.82 314.95 259.48 309.24
  C 252.88 293.10 229.39 294.68 223.38 310.37
  Q 222.05 313.85 222.01 321.41
  Q 221.94 335.81 222.03 350.20
  Q 222.03 350.73 222.56 350.73
  Z"
/>
<path fill="#e0e0e0" d="
  M 430.09 699.97
  C 423.90 699.92 417.33 700.71 417.28 692.26
  Q 417.15 670.68 417.27 665.00
  C 417.39 659.25 421.17 658.02 426.38 658.02
  C 446.43 658.03 473.76 660.89 490.86 648.35
  C 506.55 636.85 508.23 616.07 508.24 597.96
  Q 508.26 458.61 508.25 319.26
  C 508.25 314.03 509.57 310.62 515.26 310.56
  Q 521.89 310.49 542.25 310.55
  C 549.00 310.57 549.75 314.70 549.75 320.59
  Q 549.76 463.05 549.74 605.50
  C 549.74 659.65 515.72 697.54 461.31 699.58
  Q 447.25 700.11 430.09 699.97
  Z"
/>
<path fill="#ea5243" d="
  M 2063.94 421.56
  C 2060.68 419.70 2059.53 416.51 2059.52 412.61
  Q 2059.47 385.21 2059.52 357.81
  C 2059.53 355.06 2062.12 352.69 2064.67 351.26
  Q 2088.12 338.13 2111.68 325.19
  C 2116.27 322.67 2119.09 323.12 2123.74 325.76
  Q 2188.41 362.35 2256.28 401.19
  Q 2258.06 402.21 2257.03 403.98
  L 2201.61 498.89
  A 0.92 0.92 0.0 0 1 2200.36 499.23
  Q 2132.14 460.60 2063.94 421.56
  Z"
/>
<path fill="#ea5243" d="
  M 2253.58 528.92
  C 2252.53 528.32 2250.71 527.15 2249.89 526.30
  Q 2249.47 525.86 2249.78 525.33
  L 2305.42 430.41
  A 0.91 0.91 0.0 0 1 2306.62 430.05
  Q 2308.64 431.05 2310.63 432.17
  Q 2384.59 473.80 2458.53 515.49
  C 2462.91 517.96 2466.66 519.81 2466.57 525.49
  Q 2466.14 553.38 2466.55 581.24
  C 2466.61 585.88 2464.57 587.74 2460.51 589.96
  Q 2437.16 602.70 2413.71 615.22
  C 2410.27 617.06 2406.44 615.81 2402.89 613.81
  Q 2328.13 571.54 2253.58 528.92
  Z"
/>
<rect fill="#e0e0e0" x="-21.62" y="-24.24" transform="translate(1467.61,659.77) rotate(0.1)" width="43.24" height="48.48" rx="6.71"/>
<rect fill="#e0e0e0" x="1521.73" y="635.53" width="43.24" height="48.48" rx="6.68"/>
</svg>
