<?xml version="1.0" encoding="UTF-8" standalone="no"?>
<!DOCTYPE svg PUBLIC "-//W3C//DTD SVG 1.1//EN" "http://www.w3.org/Graphics/SVG/1.1/DTD/svg11.dtd">
<svg xmlns="http://www.w3.org/2000/svg" version="1.1" viewBox="0.00 0.00 2487.00 843.00">
<path fill="#ea5243" d="
  M 1736.06 630.01
  C 1734.08 627.67 1733.51 625.18 1733.51 621.81
  Q 1733.49 422.16 1733.50 222.50
  Q 1733.50 216.98 1739.17 213.75
  Q 1917.50 111.94 2095.75 9.99
  C 2099.51 7.84 2102.50 8.97 2106.32 11.15
  Q 2282.06 111.38 2457.70 211.78
  C 2461.70 214.07 2463.18 218.57 2463.21 223.37
  Q 2463.68 297.80 2463.45 372.22
  C 2463.45 374.16 2463.16 376.18 2462.96 378.12
  Q 2462.91 378.68 2462.38 378.46
  Q 2460.23 377.55 2458.96 376.83
  Q 2324.63 300.34 2106.43 175.57
  C 2099.82 171.79 2095.52 174.45 2088.80 178.28
  Q 1987.32 236.18 1885.56 293.56
  Q 1880.20 296.58 1880.24 304.00
  Q 1880.86 421.63 1880.23 539.25
  C 1880.18 547.01 1885.17 549.71 1891.64 553.39
  Q 2060.24 649.10 2228.71 745.03
  Q 2236.56 749.50 2244.39 754.38
  A 0.34 0.33 -44.2 0 1 2244.38 754.95
  C 2241.99 756.40 2239.58 758.05 2237.24 759.35
  Q 2170.45 796.37 2103.71 833.48
  C 2100.56 835.23 2096.54 833.57 2093.15 831.66
  Q 1915.01 731.30 1739.44 632.89
  A 13.42 8.58 73.0 0 1 1736.06 630.01
  Z"
/>
<path fill="#e0e0e0" d="
  M 145.75 581.47
  C 89.30 581.34 38.74 541.99 26.45 486.77
  C 15.62 438.12 34.08 388.05 73.45 357.71
  C 82.33 350.87 91.74 346.36 102.57 340.85
  C 108.36 337.90 111.68 339.46 114.55 344.98
  Q 119.88 355.20 125.16 365.42
  C 128.22 371.36 126.86 375.08 121.21 377.92
  Q 111.49 382.82 108.80 384.33
  C 76.24 402.61 59.59 438.97 66.75 475.51
  C 74.09 512.92 108.95 540.24 146.57 539.91
  C 217.34 539.28 283.42 540.09 334.50 539.97
  C 353.30 539.93 367.50 533.52 367.50 511.74
  Q 367.50 345.25 367.50 178.75
  C 367.50 174.05 370.27 171.70 374.95 171.57
  Q 388.25 171.19 401.52 171.53
  C 406.17 171.65 409.49 173.37 409.49 178.31
  Q 409.52 343.78 409.42 509.25
  C 409.40 542.00 393.30 569.57 360.57 578.61
  C 352.47 580.85 344.08 581.47 334.66 581.48
  Q 187.90 581.57 145.75 581.47
  Z"
/>
<path fill="#e0e0e0" d="
  M 857.75 560.18
  C 845.40 574.21 825.84 581.28 807.56 581.42
  Q 778.78 581.64 695.00 581.47
  C 673.12 581.43 653.63 575.96 638.69 559.56
  C 626.72 546.41 621.25 528.13 621.25 510.44
  Q 621.20 344.97 621.27 179.50
  C 621.28 173.66 623.79 171.56 629.55 171.49
  Q 648.03 171.29 656.00 171.51
  C 662.26 171.69 662.99 176.08 662.99 181.56
  Q 663.01 346.28 663.00 511.00
  C 663.00 520.99 666.52 532.05 675.99 536.54
  C 683.43 540.08 690.78 539.93 701.03 539.95
  Q 748.39 540.04 795.75 539.84
  C 802.52 539.81 810.31 540.26 816.35 538.35
  C 832.66 533.18 834.44 520.49 834.46 504.42
  Q 834.56 412.22 834.67 319.99
  C 834.68 312.83 836.00 310.32 843.54 310.28
  Q 855.77 310.20 868.00 310.23
  Q 875.76 310.24 875.78 318.06
  Q 876.01 418.03 876.00 518.00
  C 876.00 534.91 894.16 539.48 907.44 539.62
  Q 948.59 540.04 989.75 539.97
  C 1002.00 539.94 1017.15 540.89 1024.76 529.50
  C 1029.00 523.15 1029.73 515.14 1029.73 506.52
  Q 1029.76 412.90 1029.75 319.28
  C 1029.75 314.54 1031.01 310.38 1036.31 310.32
  Q 1050.28 310.16 1064.24 310.27
  C 1069.73 310.31 1071.25 313.60 1071.25 318.71
  Q 1071.26 415.11 1071.47 511.50
  C 1071.48 518.59 1070.97 525.24 1076.05 530.80
  C 1082.30 537.65 1095.94 539.53 1105.00 539.68
  Q 1126.78 540.04 1141.25 540.00
  C 1166.30 539.94 1176.23 532.10 1176.24 506.31
  Q 1176.26 419.92 1176.25 333.53
  C 1176.25 329.38 1177.79 325.35 1182.31 325.30
  Q 1195.60 325.18 1208.90 325.28
  C 1214.81 325.32 1217.75 326.94 1217.75 333.07
  Q 1217.73 425.41 1217.73 517.75
  C 1217.73 535.07 1235.48 539.30 1249.32 539.63
  Q 1277.86 540.30 1296.50 539.70
  C 1312.73 539.18 1322.50 527.81 1322.50 511.91
  Q 1322.49 414.74 1322.51 317.56
  C 1322.52 311.23 1326.76 310.31 1332.29 310.28
  Q 1344.54 310.19 1356.75 310.23
  C 1363.24 310.26 1364.23 314.39 1364.23 320.12
  Q 1364.28 410.74 1364.23 501.36
  Q 1364.22 513.58 1365.76 518.48
  C 1370.79 534.50 1387.14 539.71 1402.70 539.84
  Q 1464.76 540.38 1506.50 539.77
  C 1524.34 539.51 1533.74 528.10 1533.74 510.95
  Q 1533.75 414.73 1533.76 318.50
  C 1533.76 310.79 1538.32 310.27 1544.95 310.25
  Q 1556.49 310.22 1568.00 310.27
  Q 1575.70 310.30 1575.71 318.00
  Q 1575.75 414.25 1575.75 510.50
  C 1575.75 547.58 1552.34 576.86 1514.37 580.90
  Q 1509.15 581.46 1498.98 581.47
  Q 1454.87 581.54 1410.75 581.48
  C 1387.14 581.45 1365.53 574.95 1348.90 557.74
  Q 1348.57 557.40 1348.26 557.76
  C 1328.00 582.10 1301.22 581.77 1272.27 581.52
  C 1245.83 581.29 1220.30 579.90 1200.38 560.06
  Q 1200.01 559.69 1199.66 560.08
  C 1186.69 574.63 1167.93 580.97 1148.81 581.36
  C 1115.05 582.05 1079.26 584.72 1054.05 560.28
  Q 1053.66 559.91 1053.30 560.30
  C 1039.84 574.56 1021.95 581.05 1002.43 581.22
  Q 961.72 581.57 921.01 581.67
  C 898.11 581.72 874.61 576.13 858.52 560.16
  A 0.53 0.53 0.0 0 0 857.75 560.18
  Z"
/>
<rect fill="#e0e0e0" x="1647.25" y="171.40" width="41.74" height="410.08" rx="6.70"/>
<rect fill="#e0e0e0" x="-21.75" y="-24.24" transform="translate(817.26,218.72) rotate(0.1)" width="43.50" height="48.48" rx="6.60"/>
<rect fill="#e0e0e0" x="871.50" y="194.49" width="42.98" height="48.48" rx="6.68"/>
<path fill="#e0e0e0" d="
  M 222.56 350.73
  Q 250.36 350.80 278.14 350.74
  C 282.21 350.74 285.14 351.41 285.21 356.00
  Q 285.31 362.59 285.23 369.08
  A 4.48 4.48 0.0 0 1 280.75 373.50
  L 182.73 373.50
  A 4.47 4.47 0.0 0 1 178.26 369.05
  Q 178.23 362.72 178.23 355.75
  C 178.23 351.54 180.93 350.75 184.69 350.77
  Q 191.67 350.81 198.67 350.72
  Q 199.23 350.71 199.24 350.15
  C 199.28 336.64 197.77 318.29 200.54 307.12
  C 209.20 272.16 258.44 262.57 277.47 294.29
  Q 282.17 302.11 283.43 307.57
  C 284.92 314.01 274.80 316.22 270.31 317.96
  C 263.21 320.72 261.82 314.95 259.48 309.24
  C 252.88 293.10 229.39 294.68 223.38 310.37
  Q 222.05 313.85 222.01 321.41
  Q 221.94 335.81 222.03 350.20
  Q 222.03 350.73 222.56 350.73
  Z"
/>
<path fill="#ea5243" d="
  M 1956.55 422.22
  C 1948.44 417.62 1950.22 409.90 1950.23 402.10
  Q 1950.27 377.34 1950.25 352.57
  C 1950.25 346.09 1948.26 337.89 1955.16 333.99
  Q 2003.21 306.85 2017.47 299.20
  C 2021.91 296.82 2026.16 297.89 2030.68 300.45
  Q 2113.74 347.41 2198.59 396.03
  Q 2200.61 397.18 2199.44 399.18
  L 2129.22 519.46
  A 0.54 0.54 0.0 0 1 2128.51 519.67
  Q 2125.75 518.24 2122.86 516.60
  Q 2039.71 469.41 1956.55 422.22
  Z"
/>
<path fill="#e0e0e0" d="
  M 430.09 699.97
  C 423.90 699.92 417.33 700.71 417.28 692.26
  Q 417.15 670.68 417.27 665.00
  C 417.39 659.25 421.17 658.02 426.38 658.02
  C 446.43 658.03 473.76 660.89 490.86 648.35
  C 506.55 636.85 508.23 616.07 508.24 597.96
  Q 508.26 458.61 508.25 319.26
  C 508.25 314.03 509.57 310.62 515.26 310.56
  Q 521.89 310.49 542.25 310.55
  C 549.00 310.57 549.75 314.70 549.75 320.59
  Q 549.76 463.05 549.74 605.50
  C 549.74 659.65 515.72 697.54 461.31 699.58
  Q 447.25 700.11 430.09 699.97
  Z"
/>
<path fill="#ea5243" d="
  M 2190.02 553.52
  Q 2189.70 553.29 2189.90 552.95
  L 2260.67 432.20
  A 0.48 0.47 28.3 0 1 2261.29 432.02
  C 2263.99 433.39 2266.88 434.67 2269.45 436.13
  Q 2364.04 489.64 2458.72 543.00
  C 2462.31 545.03 2463.48 549.25 2463.49 553.53
  Q 2463.52 589.14 2463.49 624.75
  Q 2463.49 629.97 2458.11 632.90
  Q 2411.69 658.15 2397.85 665.38
  C 2391.38 668.75 2386.95 666.14 2380.40 662.43
  Q 2287.10 609.66 2194.15 556.29
  Q 2192.62 555.42 2190.02 553.52
  Z"
/>
<rect fill="#e0e0e0" x="-21.62" y="-24.24" transform="translate(1467.61,659.77) rotate(0.1)" width="43.24" height="48.48" rx="6.71"/>
<rect fill="#e0e0e0" x="1521.73" y="635.53" width="43.24" height="48.48" rx="6.68"/>
</svg>
