<?xml version="1.0" encoding="UTF-8" standalone="no"?>
<!DOCTYPE svg PUBLIC "-//W3C//DTD SVG 1.1//EN" "http://www.w3.org/Graphics/SVG/1.1/DTD/svg11.dtd">
<svg xmlns="http://www.w3.org/2000/svg" version="1.1" viewBox="0.00 0.00 2729.00 767.00">
<path fill="#ff5517" d="
  M 2157.98 267.02
  C 2154.11 269.23 2152.26 272.15 2152.25 276.72
  Q 2152.25 382.70 2152.25 488.69
  C 2152.25 494.07 2153.23 497.62 2157.78 500.24
  Q 2313.15 589.83 2468.41 679.60
  Q 2472.74 682.10 2476.73 684.62
  A 0.64 0.64 0.0 0 1 2476.73 685.71
  Q 2471.38 689.04 2466.05 692.04
  Q 2409.11 724.09 2352.19 756.19
  C 2348.87 758.06 2345.26 756.74 2341.83 754.78
  Q 2185.07 665.19 2028.15 575.90
  C 2023.59 573.30 2021.00 570.39 2021.00 565.25
  C 2020.99 445.00 2020.78 324.74 2021.01 204.50
  C 2021.02 199.04 2023.64 196.59 2028.43 193.82
  Q 2186.50 102.49 2344.40 10.87
  C 2347.44 9.11 2350.38 9.90 2353.50 11.70
  Q 2510.27 102.42 2666.94 193.30
  Q 2672.29 196.40 2672.31 203.31
  Q 2672.51 272.16 2672.30 341.00
  Q 2672.30 342.69 2672.26 343.70
  Q 2672.20 345.14 2670.95 344.42
  Q 2512.65 252.95 2354.41 161.09
  C 2347.85 157.28 2343.91 160.01 2338.18 163.32
  Q 2248.21 215.39 2157.98 267.02
  Z"
/>
<path fill="#e0e0e0" d="
  M 211.50 527.69
  C 120.77 527.35 58.32 439.23 86.43 352.72
  C 99.07 313.83 127.62 283.85 165.16 267.79
  C 170.33 265.57 174.48 264.76 177.41 270.33
  Q 183.90 282.69 190.27 295.13
  C 192.44 299.36 191.86 304.34 187.46 306.66
  C 181.00 310.07 173.59 313.54 168.04 317.06
  C 114.48 351.06 108.80 427.98 161.53 466.49
  Q 184.16 483.02 212.82 483.03
  Q 314.90 483.06 417.00 483.03
  C 443.28 483.03 451.98 471.60 451.99 446.48
  Q 452.01 269.24 452.00 92.00
  C 452.00 85.76 456.30 84.29 461.93 84.27
  Q 482.70 84.19 489.49 84.26
  Q 497.04 84.34 497.05 92.00
  Q 497.25 271.25 497.25 450.50
  C 497.25 496.23 467.05 527.86 421.06 527.93
  Q 316.28 528.10 211.50 527.69
  Z"
/>
<path fill="#e0e0e0" d="
  M 1192.98 505.02
  Q 1191.30 507.48 1188.83 509.62
  C 1174.03 522.51 1154.93 527.85 1135.56 527.94
  Q 1092.88 528.16 1050.19 528.10
  C 1026.22 528.06 1000.67 522.28 983.33 504.88
  Q 982.98 504.53 982.63 504.89
  C 967.42 521.17 947.46 527.69 925.44 527.78
  Q 866.22 528.05 807.00 527.98
  Q 794.14 527.96 782.81 525.50
  C 746.27 517.57 726.35 487.96 726.34 451.75
  Q 726.24 272.79 726.26 93.83
  C 726.26 87.34 728.10 84.31 734.73 84.28
  Q 748.08 84.21 761.43 84.27
  C 766.58 84.29 771.24 85.83 771.24 91.56
  Q 771.26 270.66 771.28 449.75
  C 771.28 477.11 785.57 483.06 810.00 483.09
  Q 865.27 483.18 920.54 482.86
  Q 933.23 482.79 938.26 481.19
  C 953.65 476.28 957.48 462.37 957.49 447.43
  Q 957.51 344.59 957.49 241.75
  C 957.49 235.82 961.73 234.54 967.02 234.52
  Q 979.69 234.47 992.36 234.52
  C 1000.23 234.55 1002.00 237.04 1001.98 244.56
  Q 1001.72 349.95 1002.19 455.33
  Q 1002.23 463.26 1003.67 466.99
  C 1009.25 481.44 1029.83 482.72 1042.94 482.84
  Q 1088.16 483.24 1133.40 482.88
  C 1148.65 482.76 1161.38 479.57 1166.14 463.67
  Q 1167.69 458.51 1167.70 445.79
  Q 1167.80 344.15 1167.74 242.50
  C 1167.73 235.76 1172.32 234.50 1178.29 234.50
  Q 1188.88 234.49 1199.45 234.51
  C 1209.11 234.53 1213.00 234.49 1213.00 245.12
  Q 1212.99 352.43 1213.02 459.75
  C 1213.03 482.05 1242.00 482.97 1257.75 483.00
  Q 1274.62 483.02 1291.50 482.98
  C 1316.78 482.90 1326.23 472.13 1326.24 447.58
  Q 1326.26 353.96 1326.25 260.34
  C 1326.25 253.85 1328.11 250.81 1334.74 250.78
  Q 1349.37 250.72 1364.00 250.75
  C 1370.55 250.77 1371.25 255.82 1371.25 261.42
  Q 1371.24 358.71 1371.19 456.00
  Q 1371.19 462.13 1372.54 466.74
  C 1377.13 482.38 1403.87 483.00 1416.25 483.02
  Q 1432.87 483.04 1449.50 482.97
  C 1474.68 482.87 1484.92 471.94 1484.90 447.19
  Q 1484.79 345.29 1484.74 243.40
  C 1484.74 237.15 1487.00 234.57 1493.13 234.53
  Q 1506.94 234.45 1520.75 234.52
  C 1529.11 234.57 1529.74 238.92 1529.74 246.27
  Q 1529.76 344.98 1529.75 443.70
  Q 1529.74 454.81 1531.23 459.65
  C 1536.34 476.30 1554.56 483.09 1570.94 483.09
  Q 1623.84 483.08 1676.75 482.97
  C 1691.18 482.94 1704.25 480.75 1710.24 465.93
  Q 1712.73 459.77 1712.73 453.93
  Q 1712.76 349.22 1712.75 244.51
  C 1712.75 237.53 1714.86 234.57 1721.86 234.53
  Q 1735.81 234.46 1749.75 234.48
  C 1757.73 234.49 1758.23 239.66 1758.23 246.47
  Q 1758.29 347.24 1758.22 448.00
  C 1758.18 495.12 1729.58 527.64 1680.94 527.87
  Q 1629.63 528.12 1578.32 528.00
  C 1553.98 527.95 1530.10 520.16 1513.16 502.21
  Q 1512.82 501.85 1512.50 502.23
  C 1497.72 520.03 1476.26 527.62 1453.57 527.97
  C 1419.08 528.50 1379.26 531.31 1352.36 504.80
  Q 1351.98 504.43 1351.63 504.83
  C 1327.51 532.18 1291.39 528.23 1256.25 527.73
  C 1233.15 527.40 1210.27 520.99 1194.05 504.92
  A 0.70 0.70 0.0 0 0 1192.98 505.02
  Z"
/>
<rect fill="#e0e0e0" x="1835.51" y="84.23" width="45.24" height="443.76" rx="7.45"/>
<rect fill="#e0e0e0" x="-23.61" y="-26.24" transform="translate(938.64,135.47) rotate(0.1)" width="47.22" height="52.48" rx="7.27"/>
<rect fill="#e0e0e0" x="997.27" y="109.23" width="46.48" height="52.48" rx="7.19"/>
<path fill="#e0e0e0" d="
  M 269.03 278.38
  A 0.76 0.75 -87.8 0 0 269.82 277.64
  Q 270.06 263.23 270.02 248.58
  Q 269.98 236.46 271.31 231.02
  C 277.28 206.43 301.95 192.79 326.34 197.37
  C 343.90 200.68 357.44 215.55 361.19 232.58
  C 361.77 235.18 359.36 237.69 356.88 238.77
  Q 347.60 242.79 344.82 243.61
  C 339.99 245.02 337.78 240.14 336.24 236.04
  C 333.06 227.57 327.64 221.84 318.47 221.17
  C 308.25 220.43 298.99 225.91 295.75 235.75
  Q 294.54 239.44 294.50 247.50
  Q 294.42 262.62 294.54 277.75
  Q 294.55 278.28 295.08 278.27
  Q 325.10 278.21 354.98 278.29
  C 358.87 278.30 362.79 278.52 362.93 283.57
  Q 363.13 290.63 362.91 297.70
  C 362.77 302.38 359.66 302.98 355.53 302.98
  Q 304.14 303.03 252.75 302.97
  C 248.22 302.97 247.24 300.29 247.24 296.16
  Q 247.24 290.06 247.14 284.01
  Q 247.05 278.80 252.19 278.48
  Q 260.63 277.97 269.03 278.38
  Z"
/>
<path fill="#e0e0e0" d="
  M 512.31 655.95
  C 508.38 655.87 505.89 651.81 505.92 648.24
  Q 506.01 634.92 505.99 621.53
  C 505.97 614.36 507.10 610.64 515.01 610.73
  Q 532.62 610.93 550.25 610.52
  C 590.06 609.59 604.23 586.73 604.24 549.85
  Q 604.26 396.30 604.25 242.75
  Q 604.25 235.10 612.05 234.96
  Q 632.37 234.62 641.74 234.80
  C 647.99 234.92 649.25 238.90 649.25 244.55
  Q 649.25 399.02 649.25 553.50
  C 649.25 603.96 622.75 643.22 572.82 653.39
  C 553.29 657.36 527.54 656.27 512.31 655.95
  Z"
/>
<path fill="#ff5517" d="
  M 2219.59 383.85
  C 2216.29 381.95 2214.53 378.06 2214.52 374.29
  Q 2214.47 342.77 2214.51 311.25
  Q 2214.52 306.21 2219.83 303.24
  Q 2246.25 288.48 2272.72 273.81
  C 2277.07 271.40 2280.91 270.75 2285.09 273.14
  Q 2360.44 316.38 2436.25 360.44
  Q 2438.02 361.47 2437.00 363.24
  L 2374.46 471.96
  Q 2374.06 472.66 2373.35 472.28
  Q 2367.26 469.03 2360.91 465.36
  Q 2290.29 424.53 2219.59 383.85
  Z"
/>
<path fill="#ff5517" d="
  M 2433.94 506.82
  C 2432.53 506.00 2429.42 504.17 2428.58 502.87
  A 0.59 0.57 44.0 0 1 2428.56 502.27
  L 2491.08 394.08
  Q 2492.00 392.48 2493.60 393.40
  Q 2581.93 444.05 2667.95 493.29
  Q 2672.58 495.93 2672.52 502.00
  Q 2672.24 530.90 2672.80 566.00
  C 2672.88 570.83 2670.58 573.29 2666.32 575.67
  Q 2642.47 588.99 2618.41 601.92
  C 2610.56 606.14 2608.19 607.26 2599.75 602.41
  Q 2516.74 554.78 2433.94 506.82
  Z"
/>
<rect fill="#e0e0e0" x="-23.37" y="-26.24" transform="translate(1641.13,612.73) rotate(0.1)" width="46.74" height="52.48" rx="7.18"/>
<rect fill="#e0e0e0" x="1699.73" y="586.49" width="46.74" height="52.48" rx="7.17"/>
</svg>
