<?xml version="1.0" encoding="UTF-8" ?>
<!DOCTYPE svg PUBLIC "-//W3C//DTD SVG 1.1//EN" "http://www.w3.org/Graphics/SVG/1.1/DTD/svg11.dtd">
<svg width="2084pt" height="586pt" viewBox="0 0 2084 586" version="1.1" xmlns="http://www.w3.org/2000/svg">
<g id="#ffffffff">
<path fill="#ffffff" opacity="1.00" d=" M 0.00 0.00 L 2084.00 0.00 L 2084.00 586.00 L 0.00 586.00 L 0.00 0.00 M 1753.27 27.39 C 1682.53 68.25 1611.82 109.17 1541.05 149.99 C 1538.94 151.31 1536.83 152.86 1535.67 155.11 C 1535.24 158.73 1535.57 162.39 1535.50 166.02 C 1535.49 251.70 1535.52 337.38 1535.49 423.06 C 1535.16 427.54 1534.31 433.43 1538.74 436.24 C 1618.35 481.72 1698.10 526.96 1777.76 572.35 C 1780.28 573.54 1783.43 573.27 1785.89 571.97 C 1816.83 554.04 1848.53 537.40 1879.13 518.88 C 1799.11 472.06 1718.47 426.32 1638.31 379.75 C 1635.49 378.27 1634.27 375.04 1634.48 371.99 C 1634.56 318.68 1634.42 265.36 1634.55 212.05 C 1634.46 207.70 1638.53 205.50 1641.92 203.88 C 1686.86 178.14 1731.79 152.39 1776.61 126.45 C 1779.08 124.97 1782.33 124.31 1784.95 125.86 C 1865.02 171.83 1944.63 218.61 2024.90 264.23 C 2025.82 258.18 2025.43 252.04 2025.50 245.94 C 2025.51 216.97 2025.48 187.99 2025.52 159.02 C 2025.71 155.24 2024.10 151.23 2020.59 149.48 C 1946.92 106.84 1873.21 64.29 1799.57 21.62 C 1793.36 18.40 1787.80 13.88 1781.03 11.87 C 1771.39 16.31 1762.55 22.27 1753.27 27.39 M 546.68 126.31 C 546.34 131.21 546.54 136.13 546.50 141.04 C 546.49 197.69 546.51 254.35 546.49 311.01 C 546.28 320.27 547.39 329.56 549.66 338.54 C 553.84 354.56 564.01 369.11 578.25 377.72 C 592.45 386.51 609.61 388.30 625.97 388.00 C 640.01 387.68 654.30 389.17 668.08 385.74 C 682.53 382.41 696.16 374.53 705.30 362.72 C 708.67 365.69 711.46 369.25 714.90 372.14 C 723.45 379.70 734.31 384.35 745.50 386.32 C 761.54 389.02 777.85 387.69 794.03 388.00 C 810.01 388.30 826.89 387.20 840.98 378.89 C 848.86 374.44 854.92 367.56 860.65 360.70 C 869.11 373.60 883.10 382.19 897.94 385.77 C 909.73 388.69 921.97 387.89 934.00 388.00 C 945.73 388.21 957.69 387.57 968.89 383.81 C 981.31 379.83 991.84 371.18 999.22 360.54 C 1008.14 373.75 1022.39 382.89 1037.94 386.12 C 1044.81 388.02 1051.97 387.21 1058.99 387.95 C 1075.34 387.95 1092.22 389.11 1107.93 383.64 C 1120.56 379.56 1131.14 370.63 1138.75 359.93 C 1144.98 369.08 1153.60 376.69 1163.71 381.28 C 1174.43 386.16 1186.31 387.61 1197.98 388.01 C 1208.99 388.00 1220.00 387.99 1231.02 388.01 C 1244.28 388.27 1257.86 386.46 1269.96 380.79 C 1283.34 374.78 1294.23 363.70 1300.29 350.38 C 1304.90 339.88 1307.12 328.42 1307.51 316.99 C 1307.47 279.43 1307.55 241.88 1307.47 204.32 C 1297.68 208.99 1288.24 214.35 1278.54 219.20 C 1278.46 249.47 1278.51 279.75 1278.51 310.02 C 1278.16 321.51 1277.08 333.63 1270.54 343.46 C 1265.42 351.83 1256.32 356.96 1246.95 359.12 C 1237.14 361.74 1226.92 359.71 1216.96 360.84 C 1211.61 361.46 1206.28 360.23 1200.94 360.49 C 1188.69 361.03 1175.65 358.02 1166.37 349.63 C 1160.94 344.89 1157.58 338.27 1155.42 331.51 C 1151.78 319.03 1152.57 305.90 1152.50 293.06 C 1152.47 263.48 1152.55 233.89 1152.46 204.31 C 1142.68 209.07 1133.19 214.42 1123.46 219.29 C 1123.56 248.86 1123.45 278.43 1123.52 308.00 C 1123.56 320.39 1122.35 333.59 1115.13 344.08 C 1109.62 352.67 1099.88 357.56 1090.10 359.44 C 1082.83 361.20 1075.32 360.05 1067.97 361.00 C 1056.73 360.63 1044.84 360.71 1034.65 355.25 C 1025.23 350.36 1018.51 341.14 1016.01 330.91 C 1012.54 319.56 1014.86 307.62 1013.55 296.01 C 1013.48 270.51 1013.45 244.99 1013.56 219.49 C 1003.94 224.90 994.05 229.83 984.45 235.29 C 984.57 261.20 984.45 287.11 984.52 313.03 C 984.36 323.84 982.50 335.13 976.25 344.20 C 970.05 353.68 958.84 358.62 947.93 360.07 C 938.32 361.03 928.61 361.41 918.98 360.59 C 908.67 360.24 897.88 357.91 889.83 351.09 C 880.11 343.12 876.24 330.17 875.52 318.04 C 875.45 290.46 875.56 262.89 875.46 235.31 C 865.56 240.04 856.10 245.66 846.15 250.30 C 845.80 267.85 846.10 285.41 846.00 302.96 C 846.30 316.20 846.12 330.34 839.11 342.07 C 833.57 351.83 822.96 357.70 812.13 359.56 C 804.51 361.29 796.67 359.96 788.97 360.82 C 781.34 361.60 773.72 360.06 766.08 360.52 C 752.78 361.03 738.33 356.90 729.68 346.25 C 722.14 336.58 720.00 323.91 719.98 311.95 C 720.03 290.97 719.99 269.99 720.00 249.01 C 719.82 234.06 720.37 219.09 719.72 204.16 C 710.24 209.37 700.51 214.13 691.00 219.29 C 690.99 246.51 691.01 273.74 691.00 300.96 C 691.16 308.31 690.76 315.67 690.06 322.98 C 688.71 333.77 684.40 344.85 675.57 351.67 C 666.42 358.95 654.28 360.69 642.92 360.79 C 635.58 359.89 628.24 361.75 620.91 360.68 C 609.81 360.46 598.05 358.07 589.52 350.49 C 580.41 342.37 576.59 329.89 576.01 318.02 C 575.97 249.08 576.05 180.15 575.97 111.21 C 566.28 116.38 556.62 121.63 546.68 126.31 M 326.52 126.68 C 326.48 188.11 326.51 249.55 326.50 310.98 C 326.08 323.72 324.11 337.49 315.34 347.38 C 307.91 356.14 296.21 360.03 285.02 360.49 C 241.34 360.50 197.66 360.52 153.98 360.48 C 147.57 360.24 141.19 361.59 134.80 360.67 C 123.36 360.45 111.30 357.34 102.98 349.07 C 94.44 340.37 91.11 327.91 90.52 316.03 C 90.42 291.57 90.61 267.11 90.43 242.65 C 80.45 247.36 70.90 252.92 60.99 257.78 C 61.02 276.86 60.98 295.94 61.00 315.02 C 61.38 322.08 61.55 329.21 63.28 336.10 C 67.19 352.95 76.98 368.93 92.00 378.01 C 107.09 387.60 125.68 388.33 143.02 388.00 C 186.34 388.00 229.66 388.00 272.98 388.00 C 278.99 387.94 285.01 388.24 291.00 387.61 C 307.37 386.40 324.03 380.64 335.66 368.66 C 348.32 356.61 354.25 339.08 355.44 321.97 C 355.82 300.99 354.93 279.97 356.03 259.01 C 355.97 236.00 356.01 212.98 356.00 189.97 C 355.99 186.30 355.51 182.66 355.49 179.00 C 355.51 156.48 355.50 133.97 355.50 111.45 C 345.89 116.63 336.12 121.49 326.52 126.68 M 1376.11 126.37 C 1375.86 213.57 1376.06 300.78 1376.00 387.99 C 1385.66 388.01 1395.33 388.00 1404.99 387.99 C 1405.00 295.84 1405.01 203.68 1404.99 111.52 C 1395.24 116.23 1385.86 121.68 1376.11 126.37 M 667.52 114.66 C 661.69 115.25 656.77 119.71 655.59 125.44 C 654.44 131.60 654.37 138.63 657.92 144.07 C 662.77 150.37 671.91 151.00 679.06 149.07 C 685.07 147.80 689.11 141.89 689.44 135.96 C 689.84 130.23 689.70 123.78 685.86 119.14 C 681.28 114.11 673.80 113.88 667.52 114.66 M 712.43 115.60 C 707.83 117.51 704.75 122.07 703.97 126.90 C 702.86 132.94 703.50 139.76 707.21 144.84 C 711.12 149.20 717.45 150.49 723.09 149.94 C 727.85 149.54 733.07 147.90 735.68 143.57 C 739.22 137.36 739.20 129.63 736.91 122.98 C 735.54 119.02 731.81 116.36 727.92 115.18 C 722.88 113.96 717.39 114.12 712.43 115.60 M 186.25 184.30 C 184.95 185.78 183.50 187.18 182.63 188.98 C 182.25 193.85 182.61 198.75 182.52 203.63 C 194.43 198.29 208.71 196.32 220.81 202.14 C 229.77 207.40 231.40 220.57 225.87 228.87 C 222.57 232.92 217.02 233.92 212.07 234.00 C 197.72 234.02 183.38 233.97 169.03 234.01 C 166.42 239.24 163.41 244.25 160.77 249.46 C 178.82 249.55 196.88 249.46 214.94 249.51 C 222.76 249.59 230.75 246.96 236.39 241.42 C 242.42 235.68 244.95 227.13 245.05 218.99 C 245.31 209.51 242.06 199.56 234.89 193.08 C 227.50 186.15 217.06 183.54 207.16 183.33 C 216.98 172.15 226.61 160.80 236.40 149.58 C 230.22 149.41 224.03 149.55 217.85 149.47 C 206.75 160.54 196.81 172.72 186.25 184.30 M 449.52 219.25 C 449.44 266.18 449.58 313.11 449.45 360.04 C 448.55 367.98 449.51 376.00 448.43 383.92 C 446.73 399.66 441.42 415.66 430.14 427.15 C 419.60 437.65 404.79 443.49 389.96 443.53 C 373.71 444.11 357.82 439.03 343.52 431.65 C 343.54 440.08 343.57 448.52 343.04 456.93 C 351.67 462.54 361.88 465.42 371.87 467.63 C 392.77 471.64 415.19 469.12 434.05 458.99 C 448.53 451.50 460.21 439.00 467.11 424.27 C 475.58 406.14 478.40 385.82 478.00 365.96 C 477.99 312.06 478.02 258.16 477.98 204.26 C 468.43 209.12 459.01 214.25 449.52 219.25 M 1724.27 210.27 C 1712.62 216.53 1701.21 223.22 1689.61 229.57 C 1686.50 231.34 1682.83 232.83 1681.02 236.10 C 1679.89 240.64 1680.73 245.41 1680.50 250.04 C 1680.61 262.70 1680.26 275.38 1680.66 288.02 C 1682.56 293.65 1688.84 295.62 1693.44 298.54 C 1729.33 318.93 1764.87 339.93 1800.89 360.11 C 1817.08 332.23 1833.17 304.29 1849.22 276.33 C 1811.76 253.65 1773.39 232.53 1735.60 210.40 C 1732.15 208.19 1727.68 207.73 1724.27 210.27 M 1840.84 382.70 C 1884.05 408.06 1927.64 432.77 1971.03 457.83 C 1974.14 459.81 1978.27 460.29 1981.60 458.50 C 1995.03 451.36 2008.35 444.01 2021.66 436.64 C 2024.56 435.27 2025.70 432.00 2025.52 428.97 C 2025.40 413.01 2025.64 397.03 2025.41 381.08 C 2025.51 376.52 2021.23 374.06 2017.70 372.31 C 1974.96 347.98 1932.34 323.44 1889.56 299.20 C 1872.63 326.62 1857.08 354.86 1840.84 382.70 M 1225.47 432.55 C 1221.89 433.39 1218.04 434.74 1215.97 437.98 C 1212.15 443.47 1212.41 450.79 1213.90 457.03 C 1215.26 463.38 1221.70 467.48 1227.95 467.54 C 1233.07 467.68 1238.98 467.63 1242.93 463.85 C 1247.21 459.81 1248.01 453.50 1247.67 447.91 C 1247.34 443.63 1246.51 438.88 1243.09 435.93 C 1238.23 431.93 1231.44 431.25 1225.47 432.55 M 1274.46 432.50 C 1270.57 433.24 1266.40 434.81 1264.33 438.42 C 1260.71 444.31 1260.95 451.74 1262.96 458.15 C 1264.09 461.59 1266.62 464.60 1270.01 466.00 C 1275.75 468.40 1282.42 468.26 1288.23 466.17 C 1294.86 462.99 1297.04 454.99 1296.46 448.16 C 1295.97 444.12 1295.51 439.56 1292.40 436.59 C 1287.80 431.99 1280.56 431.29 1274.46 432.50 Z" />
</g>
<g id="#afb1b9ff">
<path fill="#afb1b9" opacity="1.00" d=" M 1753.27 27.39 C 1762.55 22.27 1771.39 16.31 1781.03 11.87 C 1787.80 13.88 1793.36 18.40 1799.57 21.62 C 1873.21 64.29 1946.92 106.84 2020.59 149.48 C 2024.10 151.23 2025.71 155.24 2025.52 159.02 C 2025.48 187.99 2025.51 216.97 2025.50 245.94 C 2025.43 252.04 2025.82 258.18 2024.90 264.23 C 1944.63 218.61 1865.02 171.83 1784.95 125.86 C 1782.33 124.31 1779.08 124.97 1776.61 126.45 C 1731.79 152.39 1686.86 178.14 1641.92 203.88 C 1638.53 205.50 1634.46 207.70 1634.55 212.05 C 1634.42 265.36 1634.56 318.68 1634.48 371.99 C 1634.27 375.04 1635.49 378.27 1638.31 379.75 C 1718.47 426.32 1799.11 472.06 1879.13 518.88 C 1848.53 537.40 1816.83 554.04 1785.89 571.97 C 1783.43 573.27 1780.28 573.54 1777.76 572.35 C 1698.10 526.96 1618.35 481.72 1538.74 436.24 C 1534.31 433.43 1535.16 427.54 1535.49 423.06 C 1535.52 337.38 1535.49 251.70 1535.50 166.02 C 1535.57 162.39 1535.24 158.73 1535.67 155.11 C 1536.83 152.86 1538.94 151.31 1541.05 149.99 C 1611.82 109.17 1682.53 68.25 1753.27 27.39 Z" />
<path fill="#afb1b9" opacity="1.00" d=" M 546.68 126.31 C 556.62 121.63 566.28 116.38 575.97 111.21 C 576.05 180.15 575.97 249.08 576.01 318.02 C 576.59 329.89 580.41 342.37 589.52 350.49 C 598.05 358.07 609.81 360.46 620.91 360.68 C 628.24 361.75 635.58 359.89 642.92 360.79 C 654.28 360.69 666.42 358.95 675.57 351.67 C 684.40 344.85 688.71 333.77 690.06 322.98 C 690.76 315.67 691.16 308.31 691.00 300.96 C 691.01 273.74 690.99 246.51 691.00 219.29 C 700.51 214.13 710.24 209.37 719.72 204.16 C 720.37 219.09 719.82 234.06 720.00 249.01 C 719.99 269.99 720.03 290.97 719.98 311.95 C 720.00 323.91 722.14 336.58 729.68 346.25 C 738.33 356.90 752.78 361.03 766.08 360.52 C 773.72 360.06 781.34 361.60 788.97 360.82 C 796.67 359.96 804.51 361.29 812.13 359.56 C 822.96 357.70 833.57 351.83 839.11 342.07 C 846.12 330.34 846.30 316.20 846.00 302.96 C 846.10 285.41 845.80 267.85 846.15 250.30 C 856.10 245.66 865.56 240.04 875.46 235.31 C 875.56 262.89 875.45 290.46 875.52 318.04 C 876.24 330.17 880.11 343.12 889.83 351.09 C 897.88 357.91 908.67 360.24 918.98 360.59 C 928.61 361.41 938.32 361.03 947.93 360.07 C 958.84 358.62 970.05 353.68 976.25 344.20 C 982.50 335.13 984.36 323.84 984.52 313.03 C 984.45 287.11 984.57 261.20 984.45 235.29 C 994.05 229.83 1003.94 224.90 1013.56 219.49 C 1013.45 244.99 1013.48 270.51 1013.55 296.01 C 1014.86 307.62 1012.54 319.56 1016.01 330.91 C 1018.51 341.14 1025.23 350.36 1034.65 355.25 C 1044.84 360.71 1056.73 360.63 1067.97 361.00 C 1075.32 360.05 1082.83 361.20 1090.10 359.44 C 1099.88 357.56 1109.62 352.67 1115.13 344.08 C 1122.35 333.59 1123.56 320.39 1123.52 308.00 C 1123.45 278.43 1123.56 248.86 1123.46 219.29 C 1133.19 214.42 1142.68 209.07 1152.46 204.31 C 1152.55 233.89 1152.47 263.48 1152.50 293.06 C 1152.57 305.90 1151.78 319.03 1155.42 331.51 C 1157.58 338.27 1160.94 344.89 1166.37 349.63 C 1175.65 358.02 1188.69 361.03 1200.94 360.49 C 1206.28 360.23 1211.61 361.46 1216.96 360.84 C 1226.92 359.71 1237.14 361.74 1246.95 359.12 C 1256.32 356.96 1265.42 351.83 1270.54 343.46 C 1277.08 333.63 1278.16 321.51 1278.51 310.02 C 1278.51 279.75 1278.46 249.47 1278.54 219.20 C 1288.24 214.35 1297.68 208.99 1307.47 204.32 C 1307.55 241.88 1307.47 279.43 1307.51 316.99 C 1307.12 328.42 1304.90 339.88 1300.29 350.38 C 1294.23 363.70 1283.34 374.78 1269.96 380.79 C 1257.86 386.46 1244.28 388.27 1231.02 388.01 C 1220.00 387.99 1208.99 388.00 1197.98 388.01 C 1186.31 387.61 1174.43 386.16 1163.71 381.28 C 1153.60 376.69 1144.98 369.08 1138.75 359.93 C 1131.14 370.63 1120.56 379.56 1107.93 383.64 C 1092.22 389.11 1075.34 387.95 1058.99 387.95 C 1051.97 387.21 1044.81 388.02 1037.94 386.12 C 1022.39 382.89 1008.14 373.75 999.22 360.54 C 991.84 371.18 981.31 379.83 968.89 383.81 C 957.69 387.57 945.73 388.21 934.00 388.00 C 921.97 387.89 909.73 388.69 897.94 385.77 C 883.10 382.19 869.11 373.60 860.65 360.70 C 854.92 367.56 848.86 374.44 840.98 378.89 C 826.89 387.20 810.01 388.30 794.03 388.00 C 777.85 387.69 761.54 389.02 745.50 386.32 C 734.31 384.35 723.45 379.70 714.90 372.14 C 711.46 369.25 708.67 365.69 705.30 362.72 C 696.16 374.53 682.53 382.41 668.08 385.74 C 654.30 389.17 640.01 387.68 625.97 388.00 C 609.61 388.30 592.45 386.51 578.25 377.72 C 564.01 369.11 553.84 354.56 549.66 338.54 C 547.39 329.56 546.28 320.27 546.49 311.01 C 546.51 254.35 546.49 197.69 546.50 141.04 C 546.54 136.13 546.34 131.21 546.68 126.31 Z" />
<path fill="#afb1b9" opacity="1.00" d=" M 326.52 126.68 C 336.12 121.49 345.89 116.63 355.50 111.45 C 355.50 133.97 355.51 156.48 355.49 179.00 C 355.51 182.66 355.99 186.30 356.00 189.97 C 356.01 212.98 355.97 236.00 356.03 259.01 C 354.93 279.97 355.82 300.99 355.44 321.97 C 354.25 339.08 348.32 356.61 335.66 368.66 C 324.03 380.64 307.37 386.40 291.00 387.61 C 285.01 388.24 278.99 387.94 272.98 388.00 C 229.66 388.00 186.34 388.00 143.02 388.00 C 125.68 388.33 107.09 387.60 92.00 378.01 C 76.98 368.93 67.19 352.95 63.28 336.10 C 61.55 329.21 61.38 322.08 61.00 315.02 C 60.98 295.94 61.02 276.86 60.99 257.78 C 70.90 252.92 80.45 247.36 90.43 242.65 C 90.61 267.11 90.42 291.57 90.52 316.03 C 91.11 327.91 94.44 340.37 102.98 349.07 C 111.30 357.34 123.36 360.45 134.80 360.67 C 141.19 361.59 147.57 360.24 153.98 360.48 C 197.66 360.52 241.34 360.50 285.02 360.49 C 296.21 360.03 307.91 356.14 315.34 347.38 C 324.11 337.49 326.08 323.72 326.50 310.98 C 326.51 249.55 326.48 188.11 326.52 126.68 Z" />
<path fill="#afb1b9" opacity="1.00" d=" M 1376.11 126.37 C 1385.86 121.68 1395.24 116.23 1404.99 111.52 C 1405.01 203.68 1405.00 295.84 1404.99 387.99 C 1395.33 388.00 1385.66 388.01 1376.00 387.99 C 1376.06 300.78 1375.86 213.57 1376.11 126.37 Z" />
<path fill="#afb1b9" opacity="1.00" d=" M 667.52 114.66 C 673.80 113.88 681.28 114.11 685.86 119.14 C 689.70 123.78 689.84 130.23 689.44 135.96 C 689.11 141.89 685.07 147.80 679.06 149.07 C 671.91 151.00 662.77 150.37 657.92 144.07 C 654.37 138.63 654.44 131.60 655.59 125.44 C 656.77 119.71 661.69 115.25 667.52 114.66 Z" />
<path fill="#afb1b9" opacity="1.00" d=" M 712.43 115.60 C 717.39 114.12 722.88 113.96 727.92 115.18 C 731.81 116.36 735.54 119.02 736.91 122.98 C 739.20 129.63 739.22 137.36 735.68 143.57 C 733.07 147.90 727.85 149.54 723.09 149.94 C 717.45 150.49 711.12 149.20 707.21 144.84 C 703.50 139.76 702.86 132.94 703.97 126.90 C 704.75 122.07 707.83 117.51 712.43 115.60 Z" />
<path fill="#afb1b9" opacity="1.00" d=" M 186.25 184.30 C 196.81 172.72 206.75 160.54 217.85 149.47 C 224.03 149.55 230.22 149.41 236.40 149.58 C 226.61 160.80 216.98 172.15 207.16 183.33 C 217.06 183.54 227.50 186.15 234.89 193.08 C 242.06 199.56 245.31 209.51 245.05 218.99 C 244.95 227.13 242.42 235.68 236.39 241.42 C 230.75 246.96 222.76 249.59 214.94 249.51 C 196.88 249.46 178.82 249.55 160.77 249.46 C 163.41 244.25 166.42 239.24 169.03 234.01 C 183.38 233.97 197.72 234.02 212.07 234.00 C 217.02 233.92 222.57 232.92 225.87 228.87 C 231.40 220.57 229.77 207.40 220.81 202.14 C 208.71 196.32 194.43 198.29 182.52 203.63 C 182.61 198.75 182.25 193.85 182.63 188.98 C 183.50 187.18 184.95 185.78 186.25 184.30 Z" />
<path fill="#afb1b9" opacity="1.00" d=" M 449.52 219.25 C 459.01 214.25 468.43 209.12 477.98 204.26 C 478.02 258.16 477.99 312.06 478.00 365.96 C 478.40 385.82 475.58 406.14 467.11 424.27 C 460.21 439.00 448.53 451.50 434.05 458.99 C 415.19 469.12 392.77 471.64 371.87 467.63 C 361.88 465.42 351.67 462.54 343.04 456.93 C 343.57 448.52 343.54 440.08 343.52 431.65 C 357.82 439.03 373.71 444.11 389.96 443.53 C 404.79 443.49 419.60 437.65 430.14 427.15 C 441.42 415.66 446.73 399.66 448.43 383.92 C 449.51 376.00 448.55 367.98 449.45 360.04 C 449.58 313.11 449.44 266.18 449.52 219.25 Z" />
<path fill="#afb1b9" opacity="1.00" d=" M 1724.27 210.27 C 1727.68 207.73 1732.15 208.19 1735.60 210.40 C 1773.39 232.53 1811.76 253.65 1849.22 276.33 C 1833.17 304.29 1817.08 332.23 1800.89 360.11 C 1764.87 339.93 1729.33 318.93 1693.44 298.54 C 1688.84 295.62 1682.56 293.65 1680.66 288.02 C 1680.26 275.38 1680.61 262.70 1680.50 250.04 C 1680.73 245.41 1679.89 240.64 1681.02 236.10 C 1682.83 232.83 1686.50 231.34 1689.61 229.57 C 1701.21 223.22 1712.62 216.53 1724.27 210.27 Z" />
<path fill="#afb1b9" opacity="1.00" d=" M 1840.84 382.70 C 1857.08 354.86 1872.63 326.62 1889.56 299.20 C 1932.34 323.44 1974.96 347.98 2017.70 372.31 C 2021.23 374.06 2025.51 376.52 2025.41 381.08 C 2025.64 397.03 2025.40 413.01 2025.52 428.97 C 2025.70 432.00 2024.56 435.27 2021.66 436.64 C 2008.35 444.01 1995.03 451.36 1981.60 458.50 C 1978.27 460.29 1974.14 459.81 1971.03 457.83 C 1927.64 432.77 1884.05 408.06 1840.84 382.70 Z" />
<path fill="#afb1b9" opacity="1.00" d=" M 1225.47 432.55 C 1231.44 431.25 1238.23 431.93 1243.09 435.93 C 1246.51 438.88 1247.34 443.63 1247.67 447.91 C 1248.01 453.50 1247.21 459.81 1242.93 463.85 C 1238.98 467.63 1233.07 467.68 1227.95 467.54 C 1221.70 467.48 1215.26 463.38 1213.90 457.03 C 1212.41 450.79 1212.15 443.47 1215.97 437.98 C 1218.04 434.74 1221.89 433.39 1225.47 432.55 Z" />
<path fill="#afb1b9" opacity="1.00" d=" M 1274.46 432.50 C 1280.56 431.29 1287.80 431.99 1292.40 436.59 C 1295.51 439.56 1295.97 444.12 1296.46 448.16 C 1297.04 454.99 1294.86 462.99 1288.23 466.17 C 1282.42 468.26 1275.75 468.40 1270.01 466.00 C 1266.62 464.60 1264.09 461.59 1262.96 458.15 C 1260.95 451.74 1260.71 444.31 1264.33 438.42 C 1266.40 434.81 1270.57 433.24 1274.46 432.50 Z" />
</g>
</svg>
