<?xml version="1.0" encoding="UTF-8" ?>
<!DOCTYPE svg PUBLIC "-//W3C//DTD SVG 1.1//EN" "http://www.w3.org/Graphics/SVG/1.1/DTD/svg11.dtd">
<svg width="1000pt" height="281pt" viewBox="0 0 1000 281" version="1.1" xmlns="http://www.w3.org/2000/svg">
<g id="#394054ff">
<path fill="#394054" opacity="1.00" d=" M 849.58 8.66 C 851.35 7.70 853.00 6.40 855.00 5.95 C 856.96 6.39 858.59 7.67 860.35 8.62 C 896.70 29.67 933.08 50.67 969.43 71.72 C 971.02 72.49 972.10 74.12 971.93 75.93 C 971.90 92.83 972.16 109.74 971.90 126.65 C 933.60 104.87 895.60 82.54 857.38 60.61 C 855.68 59.35 853.59 59.79 851.99 60.91 C 830.23 73.51 808.40 86.00 786.59 98.51 C 784.77 99.26 784.14 101.19 784.31 103.02 C 784.35 128.03 784.33 153.05 784.31 178.06 C 784.14 179.82 784.69 181.72 786.43 182.50 C 824.76 204.79 863.36 226.64 901.62 249.06 C 887.25 257.64 872.47 265.51 857.96 273.85 C 856.39 274.92 854.36 275.51 852.73 274.19 C 814.94 252.69 777.13 231.20 739.36 209.66 C 737.51 208.88 736.77 206.91 736.99 205.02 C 737.03 161.98 736.95 118.94 737.03 75.90 C 736.82 73.97 738.50 72.80 739.98 71.99 C 776.52 50.89 813.05 29.78 849.58 8.66 Z" />
<path fill="#394054" opacity="1.00" d=" M 828.52 100.61 C 830.49 99.46 832.51 100.91 834.22 101.86 C 851.90 112.21 869.88 122.06 887.35 132.73 C 879.62 146.01 872.01 159.35 864.30 172.63 C 846.45 162.60 828.82 152.17 811.00 142.07 C 809.09 140.94 806.38 139.71 806.73 137.01 C 806.73 129.67 806.74 122.32 806.75 114.98 C 806.44 112.55 808.89 111.55 810.60 110.55 C 816.59 107.28 822.48 103.81 828.52 100.61 Z" />
<path fill="#394054" opacity="1.00" d=" M 883.79 183.60 C 891.44 170.30 898.98 156.92 906.93 143.80 C 926.80 155.01 946.55 166.44 966.39 177.72 C 968.39 179.14 971.90 179.89 971.95 182.88 C 972.05 190.61 971.98 198.36 971.98 206.10 C 972.19 207.76 971.14 209.10 969.69 209.74 C 963.42 213.16 957.19 216.65 950.87 219.96 C 949.14 221.06 947.16 220.32 945.63 219.31 C 925.02 207.40 904.29 195.69 883.79 183.60 Z" />
</g>
<g id="#afb1b9ff">
<path fill="#afb1b9" opacity="1.00" d=" M 156.81 60.91 C 161.41 58.50 166.01 56.10 170.62 53.71 C 170.61 86.11 170.67 118.52 170.59 150.93 C 170.62 160.12 168.04 169.76 161.39 176.41 C 154.92 183.29 145.23 186.09 136.01 186.03 C 113.68 186.10 91.36 186.04 69.03 186.06 C 60.50 186.27 51.38 185.96 44.01 181.11 C 34.77 175.36 29.89 164.49 29.53 153.86 C 29.32 143.85 29.48 133.84 29.45 123.84 C 34.05 121.45 38.64 119.03 43.24 116.64 C 43.29 128.11 43.18 139.58 43.30 151.05 C 43.50 157.47 45.28 164.43 50.45 168.67 C 55.03 172.47 61.23 173.36 67.00 173.26 C 89.67 173.23 112.33 173.27 134.99 173.24 C 141.08 173.23 147.68 171.50 151.69 166.62 C 155.98 161.49 156.80 154.51 156.80 148.06 C 156.83 119.01 156.81 89.96 156.81 60.91 Z" />
<path fill="#afb1b9" opacity="1.00" d=" M 262.53 60.78 C 267.16 58.54 271.66 56.05 276.24 53.72 C 276.27 86.13 276.22 118.55 276.27 150.97 C 276.29 158.08 278.58 166.03 285.01 169.94 C 291.88 174.24 300.27 173.09 307.96 173.26 C 314.20 173.38 321.04 172.30 325.67 167.74 C 330.35 163.19 331.60 156.36 331.66 150.08 C 331.74 135.18 331.66 120.28 331.69 105.37 C 336.28 103.00 340.85 100.60 345.43 98.21 C 345.46 115.49 345.41 132.76 345.46 150.04 C 345.50 156.07 346.63 162.55 350.85 167.14 C 354.91 171.58 361.16 173.15 366.99 173.23 C 372.97 173.26 378.95 173.29 384.93 173.21 C 390.74 173.07 396.93 171.41 400.92 166.94 C 405.03 162.37 406.15 155.96 406.18 150.00 C 406.21 140.12 406.17 130.25 406.19 120.37 C 410.79 117.97 415.39 115.56 420.00 113.15 C 420.03 125.76 419.96 138.36 420.03 150.97 C 420.11 157.70 422.03 165.16 427.79 169.27 C 433.58 173.53 441.11 173.34 447.96 173.26 C 454.07 173.40 460.71 172.71 465.61 168.68 C 470.82 164.44 472.52 157.39 472.61 150.95 C 472.65 138.30 472.61 125.65 472.63 113.00 C 477.22 110.52 481.83 108.05 486.43 105.58 C 486.46 120.73 486.39 135.88 486.47 151.04 C 486.55 157.86 488.59 165.41 494.54 169.43 C 501.09 174.01 509.45 173.22 517.03 173.24 C 523.10 173.22 529.69 171.72 533.93 167.06 C 538.13 162.47 539.26 155.99 539.30 149.98 C 539.34 135.12 539.29 120.25 539.32 105.39 C 543.92 103.00 548.51 100.59 553.12 98.19 C 553.13 114.15 553.13 130.10 553.12 146.05 C 552.96 152.72 553.41 159.94 557.51 165.50 C 561.27 170.71 567.87 172.93 574.08 173.17 C 580.05 173.33 586.03 173.23 592.01 173.23 C 598.10 173.17 604.71 171.46 608.75 166.58 C 612.83 161.74 613.67 155.12 613.68 149.00 C 613.71 134.46 613.67 119.91 613.70 105.37 C 618.28 103.00 622.85 100.59 627.43 98.21 C 627.44 114.14 627.43 130.08 627.44 146.01 C 627.84 156.21 626.39 167.31 619.31 175.20 C 612.48 183.38 601.39 186.39 591.08 186.06 C 580.91 185.70 570.30 187.30 560.56 183.63 C 554.80 181.54 549.91 177.47 546.52 172.41 C 542.96 177.63 537.89 181.88 531.87 183.93 C 523.24 186.97 513.94 185.92 504.98 185.97 C 495.04 185.83 484.99 181.21 479.62 172.62 C 476.11 177.90 470.96 182.11 464.91 184.08 C 456.60 186.92 447.67 185.91 439.06 185.99 C 428.90 185.94 418.56 181.37 412.98 172.64 C 409.44 178.03 404.15 182.28 397.95 184.19 C 389.90 186.86 381.30 185.86 372.97 186.06 C 364.78 186.18 356.15 186.17 348.73 182.20 C 344.72 180.20 341.40 177.09 338.60 173.64 C 332.25 182.19 321.40 186.22 310.98 186.04 C 302.00 185.84 292.72 186.95 284.04 184.09 C 276.80 181.78 270.55 176.61 266.98 169.90 C 263.28 163.27 262.25 155.52 262.43 148.03 C 262.51 118.95 262.30 89.86 262.53 60.78 Z" />
<path fill="#afb1b9" opacity="1.00" d=" M 660.47 60.87 C 665.08 58.52 669.65 56.09 674.24 53.72 C 674.25 97.83 674.25 141.94 674.25 186.06 C 669.64 186.06 665.04 186.06 660.44 186.06 C 660.46 144.33 660.39 102.60 660.47 60.87 Z" />
<path fill="#afb1b9" opacity="1.00" d=" M 318.49 55.71 C 322.54 54.19 328.77 54.71 330.29 59.51 C 331.55 63.54 331.12 69.52 326.53 71.22 C 322.66 72.48 316.94 72.11 315.20 67.76 C 313.74 63.74 314.00 57.67 318.49 55.71 Z" />
<path fill="#afb1b9" opacity="1.00" d=" M 342.39 55.52 C 346.36 54.27 352.22 54.88 353.68 59.50 C 354.90 63.48 354.56 69.35 350.10 71.15 C 346.15 72.55 340.21 72.13 338.52 67.61 C 337.07 63.47 337.53 57.12 342.39 55.52 Z" />
<path fill="#afb1b9" opacity="1.00" d=" M 104.36 72.02 C 107.25 71.51 110.25 71.94 113.18 71.83 C 108.49 77.26 103.83 82.71 99.11 88.11 C 104.99 88.15 111.38 90.13 114.77 95.26 C 118.21 100.52 118.44 107.87 115.29 113.31 C 112.92 117.22 108.41 119.48 103.91 119.57 C 95.07 119.70 86.22 119.60 77.38 119.61 C 78.69 117.20 80.01 114.79 81.32 112.37 C 88.20 112.36 95.09 112.40 101.97 112.36 C 104.70 112.42 107.97 111.62 109.17 108.86 C 111.05 104.65 110.02 98.59 105.44 96.57 C 99.76 94.31 93.13 94.99 87.67 97.60 C 87.69 95.30 87.69 93.00 87.66 90.70 C 93.20 84.45 98.69 78.15 104.36 72.02 Z" />
<path fill="#afb1b9" opacity="1.00" d=" M 215.77 105.38 C 220.31 103.01 224.83 100.59 229.37 98.20 C 229.35 124.78 229.43 151.36 229.33 177.95 C 229.16 191.40 225.82 206.07 215.29 215.29 C 201.58 227.32 180.46 227.95 164.83 219.36 C 164.92 215.33 164.86 211.31 164.88 207.28 C 173.12 211.73 182.74 214.12 192.09 212.53 C 199.29 211.35 205.96 207.11 209.90 200.94 C 214.46 193.89 215.71 185.29 215.74 177.04 C 215.77 153.16 215.73 129.27 215.77 105.38 Z" />
<path fill="#afb1b9" opacity="1.00" d=" M 585.46 208.72 C 589.49 206.63 596.40 206.83 598.14 211.85 C 599.38 215.88 599.03 221.82 594.57 223.69 C 590.56 225.10 584.59 224.52 582.97 219.93 C 581.78 216.22 581.80 211.05 585.46 208.72 Z" />
<path fill="#afb1b9" opacity="1.00" d=" M 609.33 208.45 C 613.42 206.65 620.12 207.05 621.60 212.11 C 622.62 215.92 622.41 221.25 618.55 223.41 C 614.46 225.25 607.98 224.68 606.30 219.83 C 605.11 216.01 605.23 210.48 609.33 208.45 Z" />
</g>
</svg>
