<?xml version="1.0" encoding="UTF-8" ?>
<!DOCTYPE svg PUBLIC "-//W3C//DTD SVG 1.1//EN" "http://www.w3.org/Graphics/SVG/1.1/DTD/svg11.dtd">
<svg width="2084pt" height="586pt" viewBox="0 0 2084 586" version="1.1" xmlns="http://www.w3.org/2000/svg">
<g id="#ea5243ff">
<path fill="#ea5243" opacity="1.00" d=" M 1776.28 10.36 C 1779.23 8.49 1783.01 6.10 1786.35 8.66 C 1866.15 54.85 1945.96 101.04 2025.71 147.32 C 2028.43 148.82 2030.46 151.78 2030.27 154.97 C 2030.44 187.31 2030.48 219.65 2030.40 251.98 C 2030.42 255.74 2030.48 259.51 2030.11 263.26 C 1996.64 244.45 1963.61 224.86 1930.31 205.74 C 1884.28 179.10 1838.26 152.43 1792.26 125.73 C 1789.56 124.24 1787.00 122.33 1783.98 121.60 C 1781.60 121.08 1779.35 122.23 1777.36 123.35 C 1731.98 149.66 1686.51 175.81 1640.98 201.86 C 1637.39 203.74 1632.80 206.14 1633.14 210.91 C 1633.14 258.27 1633.26 305.63 1633.12 352.99 C 1633.23 360.66 1632.86 368.35 1633.24 376.02 C 1633.45 379.05 1635.96 381.13 1638.45 382.48 C 1711.20 424.41 1783.93 466.39 1856.63 508.40 C 1864.90 513.29 1873.40 517.80 1881.47 523.04 C 1866.59 532.18 1851.09 540.27 1835.96 548.98 C 1819.51 558.22 1803.09 567.50 1786.67 576.78 C 1784.37 578.29 1781.38 578.38 1779.10 576.83 C 1698.67 530.93 1618.25 485.01 1537.75 439.24 C 1534.63 437.76 1532.70 434.49 1533.01 431.04 C 1533.04 339.69 1533.07 248.34 1533.00 156.99 C 1532.62 153.50 1534.37 150.05 1537.60 148.55 C 1617.19 102.55 1696.77 56.52 1776.28 10.36 Z" />
<path fill="#ea5243" opacity="1.00" d=" M 1721.79 210.85 C 1725.37 208.79 1729.69 205.77 1733.89 208.14 C 1769.08 228.21 1804.11 248.57 1839.19 268.85 C 1843.22 271.25 1847.44 273.36 1851.16 276.26 C 1834.95 304.43 1818.74 332.60 1802.52 360.77 C 1786.54 352.17 1771.05 342.71 1755.27 333.76 C 1732.03 320.30 1708.73 306.93 1685.46 293.52 C 1682.32 291.91 1680.26 288.56 1680.59 285.00 C 1680.84 269.67 1680.78 254.34 1680.64 239.01 C 1680.39 236.01 1681.91 233.02 1684.67 231.71 C 1697.06 224.79 1709.37 217.72 1721.79 210.85 Z" />
<path fill="#ea5243" opacity="1.00" d=" M 1892.37 299.89 C 1899.66 303.25 1906.39 307.68 1913.42 311.54 C 1950.94 333.06 1988.45 354.59 2026.02 376.02 C 2028.63 377.35 2030.62 379.97 2030.47 383.02 C 2030.39 399.34 2030.32 415.66 2030.50 431.98 C 2030.77 435.05 2029.02 437.94 2026.23 439.19 C 2012.79 446.42 1999.53 453.98 1986.06 461.15 C 1983.26 462.70 1979.64 462.92 1976.94 461.08 C 1938.39 438.99 1899.91 416.77 1861.45 394.52 C 1855.59 390.95 1849.35 388.00 1843.87 383.87 C 1860.03 355.87 1876.21 327.89 1892.37 299.89 Z" />
</g>
<g id="#e0e0e0ff">
<path fill="#e0e0e0" opacity="1.00" d=" M 323.60 137.36 C 333.33 132.29 343.05 127.20 352.77 122.12 C 352.79 190.75 352.78 259.37 352.77 327.99 C 352.84 343.63 349.66 359.74 340.96 372.96 C 332.47 386.08 319.04 395.82 303.94 399.85 C 290.99 403.67 277.37 403.00 264.03 403.03 C 222.35 403.03 180.67 403.03 138.99 403.03 C 126.63 402.96 114.03 403.71 101.99 400.32 C 86.72 396.43 73.23 386.45 64.82 373.16 C 56.43 360.10 53.25 344.35 53.19 329.00 C 53.18 309.68 53.19 290.37 53.19 271.05 C 62.91 265.96 72.64 260.88 82.37 255.80 C 82.39 279.20 82.35 302.60 82.39 326.00 C 82.56 337.86 84.62 350.34 91.82 360.09 C 97.35 367.71 106.06 372.51 115.15 374.45 C 121.33 375.87 127.69 376.06 134.00 376.00 C 179.33 376.00 224.65 376.00 269.97 376.00 C 281.63 376.27 294.00 375.57 304.20 369.28 C 312.69 364.24 318.35 355.42 320.92 346.03 C 323.06 338.56 323.61 330.75 323.59 323.02 C 323.60 261.13 323.58 199.25 323.60 137.36 Z" />
<path fill="#e0e0e0" opacity="1.00" d=" M 549.19 137.36 C 558.92 132.30 568.64 127.20 578.37 122.13 C 578.38 190.44 578.36 258.75 578.39 327.06 C 578.47 338.67 580.51 350.91 587.64 360.40 C 593.24 367.97 602.03 372.61 611.12 374.50 C 621.58 376.77 632.34 375.77 642.96 376.00 C 653.86 376.21 665.28 375.46 675.07 370.15 C 682.54 366.22 688.32 359.46 691.45 351.65 C 694.92 343.25 695.80 334.05 695.78 325.04 C 695.78 293.98 695.78 262.92 695.78 231.86 C 705.51 226.77 715.24 221.69 724.97 216.61 C 724.97 252.74 724.97 288.88 724.97 325.01 C 724.89 336.45 726.41 348.47 732.74 358.27 C 737.44 365.69 745.10 370.91 753.46 373.38 C 764.94 376.99 777.11 375.78 788.96 376.00 C 802.82 375.79 817.39 377.32 830.41 371.48 C 839.34 367.70 846.44 360.13 849.89 351.10 C 853.74 341.59 854.18 331.17 854.03 321.03 C 854.01 301.92 854.07 282.81 854.00 263.70 C 863.71 258.54 873.48 253.51 883.21 248.41 C 883.22 272.93 883.22 297.44 883.22 321.96 C 882.92 335.86 884.46 351.06 893.84 362.07 C 902.63 372.48 916.90 375.93 930.00 375.98 C 943.68 375.78 958.02 377.34 970.94 371.81 C 979.46 368.35 986.47 361.51 990.16 353.09 C 993.99 344.62 995.10 335.20 995.10 325.99 C 995.09 299.99 995.09 273.99 995.09 247.98 C 1004.83 242.75 1014.57 237.51 1024.31 232.29 C 1024.34 264.49 1024.26 296.69 1024.35 328.89 C 1024.62 341.49 1027.64 355.02 1036.94 364.13 C 1046.12 373.17 1059.55 375.95 1072.02 375.99 C 1085.79 375.83 1100.27 377.27 1113.18 371.41 C 1122.38 367.48 1129.55 359.48 1132.88 350.09 C 1137.52 337.94 1136.53 324.74 1136.62 312.00 C 1136.62 285.29 1136.62 258.58 1136.62 231.87 C 1146.35 226.78 1156.08 221.69 1165.81 216.62 C 1165.81 245.43 1165.81 274.23 1165.81 303.04 C 1166.13 315.71 1164.85 328.54 1167.36 341.06 C 1169.48 352.33 1175.65 363.31 1185.83 369.13 C 1196.96 375.80 1210.36 376.25 1222.99 376.00 C 1234.35 375.78 1245.76 376.54 1257.09 375.41 C 1267.24 374.23 1277.55 370.28 1284.38 362.38 C 1292.15 353.53 1294.78 341.42 1295.19 329.94 C 1295.40 297.25 1295.22 264.55 1295.28 231.86 C 1305.01 226.77 1314.74 221.69 1324.47 216.61 C 1324.47 246.72 1324.47 276.82 1324.47 306.93 C 1324.27 318.90 1325.10 330.94 1323.39 342.84 C 1321.23 358.98 1313.99 374.75 1301.67 385.64 C 1289.84 396.46 1273.89 401.82 1258.06 402.77 C 1248.73 403.27 1239.37 402.93 1230.03 403.03 C 1215.51 402.92 1200.63 403.94 1186.57 399.56 C 1172.39 395.56 1159.88 386.27 1151.87 373.91 C 1144.05 385.98 1132.03 395.28 1118.22 399.42 C 1103.29 404.29 1087.42 402.79 1071.98 403.03 C 1058.35 403.27 1044.29 401.47 1032.10 394.99 C 1023.01 390.27 1015.42 382.95 1009.92 374.34 C 1003.04 384.98 992.89 393.54 981.00 398.02 C 970.53 402.11 959.17 403.24 948.01 403.00 C 933.33 402.74 918.33 404.17 904.02 400.09 C 889.46 396.35 876.51 387.01 868.41 374.34 C 860.79 386.51 848.65 395.68 834.84 399.62 C 820.35 404.18 805.01 402.78 790.06 403.00 C 775.02 402.74 759.64 404.20 745.00 399.95 C 731.30 396.33 718.95 387.96 710.58 376.51 C 701.56 388.36 688.42 396.90 673.94 400.39 C 661.58 403.71 648.69 402.92 636.03 403.00 C 625.03 402.95 613.88 403.51 603.06 401.07 C 586.79 397.83 571.65 388.41 562.37 374.56 C 553.03 360.98 549.19 344.29 549.19 327.98 C 549.19 264.44 549.18 200.90 549.19 137.36 Z" />
<path fill="#e0e0e0" opacity="1.00" d=" M 1394.19 137.37 C 1403.92 132.29 1413.64 127.20 1423.37 122.13 C 1423.38 215.76 1423.38 309.40 1423.37 403.03 C 1413.64 403.03 1403.91 403.03 1394.19 403.03 C 1394.19 314.48 1394.18 225.92 1394.19 137.37 Z" />
<path fill="#e0e0e0" opacity="1.00" d=" M 669.43 125.73 C 674.66 124.30 680.46 124.32 685.53 126.36 C 690.57 128.38 693.38 133.70 693.83 138.90 C 694.41 144.72 694.00 151.36 689.84 155.88 C 685.57 160.34 678.83 160.90 673.03 160.27 C 668.21 159.81 663.34 157.26 661.21 152.74 C 658.78 147.53 658.74 141.45 659.95 135.92 C 661.00 131.13 664.66 127.02 669.43 125.73 Z" />
<path fill="#e0e0e0" opacity="1.00" d=" M 719.43 125.62 C 724.63 124.32 730.38 124.33 735.37 126.45 C 740.06 128.43 742.80 133.31 743.38 138.19 C 744.04 143.70 743.83 149.79 740.60 154.52 C 737.59 158.88 732.04 160.43 726.99 160.48 C 721.83 160.61 716.06 159.54 712.59 155.37 C 708.46 150.26 708.34 143.09 709.37 136.89 C 710.22 131.60 714.14 126.89 719.43 125.62 Z" />
<path fill="#e0e0e0" opacity="1.00" d=" M 212.52 160.47 C 218.64 160.46 224.76 160.47 230.88 160.47 C 220.88 172.06 210.88 183.66 200.87 195.25 C 210.51 195.24 220.64 197.38 228.20 203.71 C 240.28 213.32 242.84 231.35 237.20 245.14 C 233.78 253.02 226.45 259.01 218.08 260.91 C 213.17 262.19 208.05 261.92 203.03 261.94 C 187.03 261.94 171.04 261.93 155.05 261.94 C 157.80 256.85 160.57 251.77 163.32 246.69 C 177.88 246.68 192.45 246.69 207.01 246.69 C 211.72 246.71 216.92 245.93 220.32 242.37 C 223.67 238.87 224.41 233.74 224.28 229.09 C 224.18 224.09 222.44 218.88 218.52 215.59 C 213.72 211.50 207.19 210.40 201.07 210.17 C 192.74 209.86 184.20 211.25 176.84 215.30 C 177.08 210.31 176.39 205.13 177.17 200.27 C 188.82 186.89 200.77 173.76 212.52 160.47 Z" />
<path fill="#e0e0e0" opacity="1.00" d=" M 450.47 231.87 C 460.07 226.78 469.65 221.69 479.25 216.61 C 479.25 272.08 479.27 327.56 479.24 383.03 C 479.10 405.09 475.73 427.95 464.27 447.18 C 455.82 461.62 442.31 472.80 426.87 479.11 C 399.91 490.57 368.06 487.58 342.46 473.92 C 342.54 465.37 342.48 456.82 342.50 448.27 C 360.43 458.16 381.68 463.05 402.00 459.08 C 416.80 456.20 430.31 447.14 438.34 434.34 C 447.45 420.03 450.20 402.69 450.46 386.00 C 450.49 334.62 450.45 283.24 450.47 231.87 Z" />
<path fill="#e0e0e0" opacity="1.00" d=" M 1239.42 449.58 C 1244.71 448.30 1250.56 448.23 1255.62 450.47 C 1259.77 452.32 1262.36 456.56 1263.06 460.94 C 1263.91 466.36 1263.72 472.24 1261.17 477.21 C 1259.03 481.37 1254.50 483.75 1249.97 484.22 C 1244.59 484.79 1238.59 484.34 1234.20 480.86 C 1230.61 478.00 1229.10 473.35 1228.77 468.93 C 1228.43 464.50 1228.73 459.79 1230.95 455.85 C 1232.71 452.66 1235.94 450.49 1239.42 449.58 Z" />
<path fill="#e0e0e0" opacity="1.00" d=" M 1288.42 449.77 C 1293.90 448.27 1300.06 448.15 1305.34 450.51 C 1309.78 452.51 1312.30 457.23 1312.85 461.91 C 1313.50 467.40 1313.23 473.41 1310.20 478.22 C 1307.59 482.32 1302.63 484.18 1297.94 484.38 C 1292.28 484.71 1285.78 483.69 1282.00 479.03 C 1278.03 473.93 1277.79 466.91 1278.79 460.79 C 1279.61 455.67 1283.37 451.15 1288.42 449.77 Z" />
</g>
</svg>
